<?xml version="1.0" encoding="utf-8"?>
<!-- Generator: Adobe Illustrator 20.1.0, SVG Export Plug-In . SVG Version: 6.00 Build 0)  -->
<svg version="1.1" id="Layer_1" xmlns="http://www.w3.org/2000/svg" xmlns:xlink="http://www.w3.org/1999/xlink" x="0px" y="0px"
	 viewBox="0 0 150 150" style="enable-background:new 0 0 150 150;" xml:space="preserve">
<style type="text/css">
	.st0{fill:#EC0606;}
</style>
<title>19 - Phone Apps (interaction, communication, essential, outline)</title>
<desc>Created with Sketch.</desc>
<g>
	<path class="st0" d="M96,25H54c-4,0-7.3,3.3-7.3,7.3v85.3c0,4,3.3,7.3,7.3,7.3h42c4,0,7.3-3.3,7.3-7.3V32.3
		C103.3,28.3,100,25,96,25z M50,38.3h50v63.3H50V38.3z M54,28.3h42c2.2,0,4,1.8,4,4V35H50v-2.7C50,30.2,51.8,28.3,54,28.3z
		 M96,121.7H54c-2.2,0-4-1.8-4-4V105h50v12.7C100,119.8,98.2,121.7,96,121.7z"/>
	<path class="st0" d="M75,106.7c-3.7,0-6.7,3-6.7,6.7c0,3.7,3,6.7,6.7,6.7c3.7,0,6.7-3,6.7-6.7C81.7,109.7,78.7,106.7,75,106.7z
		 M75,116.7c-1.8,0-3.3-1.5-3.3-3.3c0-1.8,1.5-3.3,3.3-3.3s3.3,1.5,3.3,3.3C78.3,115.2,76.8,116.7,75,116.7z"/>
	<path class="st0" d="M68.3,33.3H75c1,0,1.7-0.7,1.7-1.7c0-1-0.7-1.7-1.7-1.7h-6.7c-1,0-1.7,0.7-1.7,1.7
		C66.7,32.7,67.3,33.3,68.3,33.3z"/>
	<path class="st0" d="M80,33.3h1.7c1,0,1.7-0.7,1.7-1.7c0-1-0.7-1.7-1.7-1.7H80c-1,0-1.7,0.7-1.7,1.7C78.3,32.7,79,33.3,80,33.3z"/>
	<path class="st0" d="M78.3,43.3h-6.7c-1.8,0-3.3,1.5-3.3,3.3v6.7c0,1.8,1.5,3.3,3.3,3.3h6.7c1.8,0,3.3-1.5,3.3-3.3v-6.5
		C81.7,44.8,80.2,43.3,78.3,43.3z M78.3,53.3L78.3,53.3h-6.7v-6.7h6.7V53.3z"/>
	<path class="st0" d="M63.3,43.3h-6.7c-1.8,0-3.3,1.5-3.3,3.3v6.7c0,1.8,1.5,3.3,3.3,3.3h6.7c1.8,0,3.3-1.5,3.3-3.3v-6.5
		C66.7,44.8,65.2,43.3,63.3,43.3z M63.3,53.3L63.3,53.3h-6.7v-6.7h6.7V53.3z"/>
	<path class="st0" d="M93.3,43.3h-6.7c-1.8,0-3.3,1.5-3.3,3.3v6.7c0,1.8,1.5,3.3,3.3,3.3h6.7c1.8,0,3.3-1.5,3.3-3.3v-6.5
		C96.7,44.8,95.2,43.3,93.3,43.3z M93.3,53.3L93.3,53.3h-6.7v-6.7h6.7V53.3z"/>
	<path class="st0" d="M78.3,58.3h-6.7c-1.8,0-3.3,1.5-3.3,3.3v6.7c0,1.8,1.5,3.3,3.3,3.3h6.7c1.8,0,3.3-1.5,3.3-3.3v-6.7
		C81.7,59.8,80.2,58.3,78.3,58.3z M78.3,68.3L78.3,68.3h-6.7v-6.7h6.7V68.3z"/>
	<path class="st0" d="M63.3,58.3h-6.7c-1.8,0-3.3,1.5-3.3,3.3v6.7c0,1.8,1.5,3.3,3.3,3.3h6.7c1.8,0,3.3-1.5,3.3-3.3v-6.7
		C66.7,59.8,65.2,58.3,63.3,58.3z M63.3,68.3L63.3,68.3h-6.7v-6.7h6.7V68.3z"/>
	<path class="st0" d="M93.3,58.3h-6.7c-1.8,0-3.3,1.5-3.3,3.3v6.7c0,1.8,1.5,3.3,3.3,3.3h6.7c1.8,0,3.3-1.5,3.3-3.3v-6.7
		C96.7,59.8,95.2,58.3,93.3,58.3z M93.3,68.3L93.3,68.3h-6.7v-6.7h6.7V68.3z"/>
	<path class="st0" d="M78.3,73.3h-6.7c-1.8,0-3.3,1.5-3.3,3.3v6.7c0,1.8,1.5,3.3,3.3,3.3h6.7c1.8,0,3.3-1.5,3.3-3.3v-6.7
		C81.7,74.8,80.2,73.3,78.3,73.3z M78.3,83.3L78.3,83.3h-6.7v-6.7h6.7V83.3z"/>
	<path class="st0" d="M63.3,73.3h-6.7c-1.8,0-3.3,1.5-3.3,3.3v6.7c0,1.8,1.5,3.3,3.3,3.3h6.7c1.8,0,3.3-1.5,3.3-3.3v-6.7
		C66.7,74.8,65.2,73.3,63.3,73.3z M63.3,83.3L63.3,83.3h-6.7v-6.7h6.7V83.3z"/>
	<path class="st0" d="M93.3,73.3h-6.7c-1.8,0-3.3,1.5-3.3,3.3v6.7c0,1.8,1.5,3.3,3.3,3.3h6.7c1.8,0,3.3-1.5,3.3-3.3v-6.7
		C96.7,74.8,95.2,73.3,93.3,73.3z M93.3,83.3L93.3,83.3h-6.7v-6.7h6.7V83.3z"/>
</g>
</svg>
