<?xml version="1.0" encoding="utf-8"?>
<!-- Generator: Adobe Illustrator 20.1.0, SVG Export Plug-In . SVG Version: 6.00 Build 0)  -->
<svg version="1.1" id="Layer_1" xmlns="http://www.w3.org/2000/svg" xmlns:xlink="http://www.w3.org/1999/xlink" x="0px" y="0px"
	 viewBox="0 0 150 150" style="enable-background:new 0 0 150 150;" xml:space="preserve">
<style type="text/css">
	.st0{fill:#EC0606;}
</style>
<g>
	<path class="st0" d="M131.9,35.8l-1.8-1.3c-1.6-1.2-3.9-0.9-5.2,0.7l-2.8,3.7l-0.2-0.2c-0.4-0.3-0.8-0.4-1.3-0.4
		c-0.5,0.1-0.9,0.3-1.1,0.7l-0.6,0.9l-6-1.5c-0.7-0.2-1.6,0.1-2,0.6l-3.9,4.9v-2.2c0,0,0.2-0.1,0.2-0.1c0-0.1,0.1-0.3,0-0.4
		c0-0.1,0-0.1,0-0.2c-0.1-0.2-0.2-0.3-0.3-0.5l-15-15c-0.1-0.1-0.3-0.2-0.5-0.3c-0.1,0-0.1,0-0.2-0.1c-0.1,0-0.3-0.1-0.4-0.1
		c0,0-0.1,0-0.1,0h-55c-0.9,0-1.8,0.8-1.8,1.7v96.7c0,0.9,0.9,1.7,1.8,1.7h70c0.9,0,1.2-0.7,1.2-1.7V78.2l23.2-30.5
		c0.5-0.7,0.5-1.7-0.2-2.3l-0.4-0.4l3-4C133.8,39.3,133.5,37,131.9,35.8z M112.9,41.9l3.4,0.9L107,55.3v-5.8L112.9,41.9z M90.3,92.5
		l-3,2.1L86.6,94l2.2-6.7l4.3,3.2L90.3,92.5z M90.4,84.3l1.9-2.6l5,3.8l-1.7,2.3L90.4,84.3z M99.3,82.9l-5-3.9l2-2.7l5.1,3.8
		L99.3,82.9z M103.4,77.5l-5.2-3.8l2-2.7l5.2,3.8L103.4,77.5z M107.6,72.1l-5.3-3.8l2-2.7l5.3,3.8L107.6,72.1z M92,30.7l9.8,9.3H92
		V30.7z M104,82.6V122H37V28h52v13.7c0,0.9,0.9,1.3,1.8,1.3H104v5.4l-2.9,4c-0.6,0.7-0.4,1.8,0.4,2.3c0.3,0.2,0.7,0.3,1,0.3
		c0.5,0,0.9-0.2,1.3-0.7L104,54v5.9L86.6,83.7c-0.1,0.1-0.1,0.3-0.2,0.5l-3.3,10C83,94.3,83,94.5,83,94.7c0,0.5,0.2,1,0.7,1.3l0,0
		l-0.9,1.3c-0.5,0.8-0.3,1.8,0.4,2.3c0.3,0.2,0.6,0.3,0.9,0.3c0.5,0,1-0.3,1.4-0.7l0.9-1.3c0.1,0.1,0.3,0.2,0.4,0.2
		c0.1,0,0.1,0,0.2,0c0.1,0,0.2,0,0.3,0c0,0,0,0,0,0c0.1,0,0.2,0,0.3-0.1c0,0,0.1,0,0.1,0c0.2,0,0.3-0.1,0.5-0.2l8.6-6
		c0.1-0.1,0.2-0.2,0.3-0.3c0,0-0.1,0,0,0L104,82.6z M111.9,66.8l-5.7-4l1-1.4c0,0,0,0,0,0l14-19l5.7,4.6L111.9,66.8z M130,39
		l-2.8,3.9l-2.4-1.9l2.9-3.7c0.1-0.2,0.4-0.2,0.5-0.1l1.8,1.3C130,38.6,130.1,38.8,130,39z"/>
	<path class="st0" d="M69.2,57h-20c-0.9,0-1.7,0.6-1.7,1.5s0.7,1.5,1.7,1.5h20c0.9,0,1.7-0.6,1.7-1.5S70.1,57,69.2,57z"/>
	<path class="st0" d="M69.2,77h-20c-0.9,0-1.7,0.6-1.7,1.5s0.7,1.5,1.7,1.5h20c0.9,0,1.7-0.6,1.7-1.5S70.1,77,69.2,77z"/>
	<path class="st0" d="M69.2,97h-20c-0.9,0-1.7,0.6-1.7,1.5s0.7,1.5,1.7,1.5h20c0.9,0,1.7-0.6,1.7-1.5S70.1,97,69.2,97z"/>
	<path class="st0" d="M81.3,61.3c0.3,0.3,0.7,0.7,1.2,0.7c0,0,0.1,0,0.1,0c0.5,0,0.9-0.4,1.2-0.8l8.3-10.1c0.6-0.7,0.5-1.8-0.2-2.4
		c-0.7-0.6-1.8-0.5-2.3,0.2l-7.2,8.6l-2-2c-0.7-0.7-1.7-0.7-2.4,0c-0.7,0.7-0.7,1.8,0,2.4L81.3,61.3z"/>
	<path class="st0" d="M83.8,81.2l8.3-10.1c0.6-0.7,0.5-1.8-0.2-2.4c-0.7-0.6-1.8-0.5-2.3,0.2l-7.2,8.6l-2-2c-0.7-0.7-1.7-0.7-2.4,0
		c-0.7,0.7-0.7,1.7,0,2.4l3.3,3.5c0.3,0.3,0.7,0.7,1.2,0.7c0,0,0.1,0,0.1,0C83,82,83.5,81.6,83.8,81.2z"/>
</g>
</svg>
