<?xml version="1.0" encoding="utf-8"?>
<!-- Generator: Adobe Illustrator 20.1.0, SVG Export Plug-In . SVG Version: 6.00 Build 0)  -->
<svg version="1.1" id="Layer_1" xmlns="http://www.w3.org/2000/svg" xmlns:xlink="http://www.w3.org/1999/xlink" x="0px" y="0px"
	 viewBox="0 0 150 150" style="enable-background:new 0 0 150 150;" xml:space="preserve">
<style type="text/css">
	.st0{fill:#EC0606;}
</style>
<title>25 -Cup- (education, study, learning, knowledge, outline)</title>
<desc>Created with Sketch.</desc>
<g>
	<path class="st0" d="M115.2,38.3H110v-1.7v-6.9c0-2.6-2.1-4.8-4.8-4.8H44.8h0c-0.7,0-1.4,0.2-2.1,0.5c-1.6,0.8-2.7,2.4-2.7,4.3v6.9
		c0,0,0,0,0,0v1.7h-5.2c-5.3,0-9.8,4.6-9.8,10v15.1c0,7,3.7,13.5,9.7,17.1l9.4,5.7l0.9,0.5c4.5,6.4,11.7,10.7,19.9,11.5v6.8h-0.1
		c-2.7,0-4.9,2.2-4.9,4.9v1.8h-3.3c-6.4,0-11.7,5.2-11.7,11.7c0,0.9,0.7,1.7,1.7,1.7h56.7c0.9,0,1.7-0.7,1.7-1.7
		c0-6.4-5.2-11.7-11.7-11.7H90v-1.8c0-2.7-2.2-4.9-4.9-4.9H85v-6.8c8.2-0.7,15.4-5.1,19.9-11.5l10.4-6.2c6-3.6,9.7-10.1,9.7-17.1
		V48.3C125,42.9,120.5,38.3,115.2,38.3z M110,70.9V48.3h5v15.1c0,3.5-1.9,6.8-4.8,8.5l-0.2,0.1C110,71.7,110,71.3,110,70.9z
		 M105.2,28.3c0.8,0,1.4,0.6,1.4,1.4V35H43.3v-5.2c0-0.6,0.4-1.2,1-1.4c0.1,0,0.3-0.1,0.4-0.1H105.2z M40.1,72.1L39.9,72
		c-3-1.8-4.8-5.1-4.8-8.5l0-15.1h5v22.5C40,71.3,40,71.7,40.1,72.1z M41.9,81l-5.5-3.3c-5-3-8.1-8.5-8.1-14.3V48.3
		c0-3.6,2.9-6.6,6.4-6.6H40V45h-5.2c-1.8,0-3.1,1.7-3.1,3.3v15.1c0,4.6,2.5,9,6.5,11.4l2.4,1.4c0.3,1.4,0.7,2.8,1.2,4.1
		C41.8,80.6,41.9,80.8,41.9,81z M101.5,121.7h-53c0.8-3.8,4.2-6.7,8.2-6.7h4.9c0,0,0.1,0,0.1,0h26.7c0,0,0.1,0,0.1,0h4.9
		C97.3,115,100.7,117.9,101.5,121.7z M86.7,109.9v1.8H63.3v-1.8c0-0.9,0.7-1.6,1.6-1.6h1.8h16.7h1.8C86,108.3,86.7,109,86.7,109.9z
		 M68.3,105v-6.7h13.3v6.7H68.3z M83.3,95C83.3,95,83.3,95,83.3,95l-0.3,0c-0.1,0-0.3,0-0.4,0H67.5c-0.1,0-0.3,0-0.4,0l-0.3,0
		c0,0,0,0,0,0c-8-0.2-15-4.4-19.2-10.5c-0.5-0.7-0.9-1.4-1.3-2.1c0-0.1-0.1-0.2-0.1-0.3c-0.3-0.7-0.7-1.3-0.9-2
		c0-0.1-0.1-0.2-0.1-0.3c-0.3-0.7-0.5-1.4-0.7-2.2c0,0,0-0.1,0-0.1c-0.2-0.8-0.4-1.6-0.6-2.5c-0.2-1.3-0.4-2.7-0.4-4.1V38.3h63.3
		v32.5c0,1.4-0.1,2.8-0.4,4.1c-0.1,0.8-0.3,1.7-0.6,2.5c0,0,0,0.1,0,0.1c-0.2,0.8-0.5,1.5-0.8,2.2c0,0.1-0.1,0.2-0.1,0.3
		c-0.3,0.7-0.6,1.4-1,2.1c0,0.1-0.1,0.1-0.1,0.2c-0.4,0.7-0.8,1.4-1.3,2.1C98.3,90.6,91.3,94.7,83.3,95z M121.7,63.4
		c0,5.8-3.1,11.3-8.1,14.3l-5.5,3.3c0.1-0.2,0.1-0.4,0.2-0.6c0.5-1.3,0.9-2.7,1.2-4.1l2.4-1.4c4-2.4,6.5-6.8,6.5-11.4V48.3
		c0-1.6-1.3-3.3-3.1-3.3H110v-3.3h5.2c3.5,0,6.4,3,6.4,6.6V63.4z"/>
	<path class="st0" d="M88.3,56.7h-7.9l-3.9-7.4c-0.6-1.1-2.4-1.1-3,0l-3.9,7.4h-7.9c-0.6,0-1.2,0.4-1.5,0.9
		c-0.3,0.6-0.2,1.3,0.2,1.8l6.2,7.8L65,76.4c-0.1,0.6,0.2,1.3,0.7,1.6c0.5,0.4,1.2,0.4,1.8,0.1l7.5-4.4l7.5,4.4
		c0.3,0.2,0.6,0.2,0.8,0.2c0.3,0,0.7-0.1,0.9-0.3c0.5-0.4,0.8-1,0.7-1.6l-1.5-9.3l6.2-7.8c0.4-0.5,0.5-1.2,0.2-1.8
		C89.6,57,89,56.7,88.3,56.7z M80.4,65.6c-0.3,0.4-0.4,0.8-0.3,1.3l1.1,6.5l-5.3-3.1c-0.3-0.2-0.6-0.2-0.8-0.2s-0.6,0.1-0.8,0.2
		l-5.3,3.1l1.1-6.5c0.1-0.5,0-0.9-0.3-1.3L65.1,60h5.5c0.6,0,1.2-0.3,1.5-0.9l2.9-5.5l2.9,5.5c0.3,0.5,0.9,0.9,1.5,0.9h5.5
		L80.4,65.6z"/>
</g>
</svg>
