<?xml version="1.0" encoding="utf-8"?>
<!-- Generator: Adobe Illustrator 20.1.0, SVG Export Plug-In . SVG Version: 6.00 Build 0)  -->
<svg version="1.1" id="Layer_1" xmlns="http://www.w3.org/2000/svg" xmlns:xlink="http://www.w3.org/1999/xlink" x="0px" y="0px"
	 viewBox="0 0 150 150" style="enable-background:new 0 0 150 150;" xml:space="preserve">
<style type="text/css">
	.st0{fill:#EC0606;}
</style>
<title>18 - Bills (communication, dialogue, discussion, outline)</title>
<desc>Created with Sketch.</desc>
<path class="st0" d="M123.2,56.4H123l-5.3-19.8l0.5-1.7l-1,0.2l-0.2-0.5L35.5,56.4h-7.7h-2.3v60h100v-60H123.2z M122.2,80.9
	l-5.5-8.2l5.5-8.8V80.9z M119.5,56.4h-7.8l4.2-13.8L119.5,56.4z M113.2,39.5L108,56.4H49.7L113.2,39.5z M34.3,59.7h2.5h73.7h10.3
	L106.3,83H44.7L30.2,59.7H34.3z M28.8,63.9l5.5,8.8L28.8,81C28.8,81,28.8,63.9,28.8,63.9z M28.8,113V87l7.5-11.2l6.5,10.5h65.3
	l6.5-10.7l7.3,11.2V113H28.8z"/>
</svg>
