<?xml version="1.0" encoding="utf-8"?>
<!-- Generator: Adobe Illustrator 20.1.0, SVG Export Plug-In . SVG Version: 6.00 Build 0)  -->
<svg version="1.1" id="Layer_1" xmlns="http://www.w3.org/2000/svg" xmlns:xlink="http://www.w3.org/1999/xlink" x="0px" y="0px"
	 viewBox="0 0 150 150" style="enable-background:new 0 0 150 150;" xml:space="preserve">
<style type="text/css">
	.st0{fill:#EC0606;}
</style>
<title>21 -Book- (education, study, learning, knowledge, outline)</title>
<desc>Created with Sketch.</desc>
<g>
	<path class="st0" d="M111.7,25H55H45c-4.6,0-8.3,3.7-8.3,8.3v83.3c0,4.6,3.7,8.3,8.3,8.3h66.7c0.9,0,1.7-0.7,1.7-1.7V110V26.7
		C113.3,25.7,112.6,25,111.7,25z M110,108.3H56.7v-80H110V108.3z M40,33.3c0-2.8,2.2-5,5-5h8.3v80H45c-0.5,0-1,0.1-1.5,0.2
		c-0.2,0-0.3,0.1-0.5,0.1c-0.3,0.1-0.7,0.2-1,0.3c-0.2,0.1-0.3,0.1-0.5,0.2c-0.3,0.1-0.6,0.3-0.9,0.5c-0.1,0.1-0.3,0.2-0.4,0.3
		c-0.1,0-0.1,0.1-0.2,0.1V33.3z M110,121.7H45c-2.8,0-5-2.2-5-5c0-2.8,2.2-5,5-5h10h55V121.7z"/>
	<path class="st0" d="M45,116.7c0,0.9,0.7,1.7,1.7,1.7H105c0.9,0,1.7-0.7,1.7-1.7c0-0.9-0.7-1.7-1.7-1.7H46.7
		C45.7,115,45,115.7,45,116.7z"/>
	<path class="st0" d="M83.3,51.6c-6.8,0.1-13,6.4-13.3,13.4c-0.1,3.3,1,6.4,3,8.9c2.4,2.9,3.6,6.1,3.6,9.4V90v1.7
		c0,3.7,3,6.7,6.7,6.7s6.7-3,6.7-6.7V90v-6.6c0-3.4,1.2-6.6,3.4-9.1c2.1-2.4,3.3-5.5,3.3-8.7c0-3.8-1.6-7.5-4.3-10.2
		C89.9,52.9,86.7,51.6,83.3,51.6z M86.7,88.3H80V85h6.7V88.3z M83.3,95c-1.8,0-3.3-1.5-3.3-3.3h6.7C86.7,93.5,85.2,95,83.3,95z
		 M90.9,72.1c-2.3,2.7-3.8,6.1-4.1,9.6h-6.8c-0.4-3.4-1.8-6.8-4.3-9.8c-1.5-1.9-2.3-4.3-2.3-6.7c0.2-5.3,4.9-10.1,10-10.2
		c2.5-0.1,4.9,0.9,6.7,2.8c2.1,2,3.3,4.9,3.3,7.8C93.3,67.9,92.5,70.3,90.9,72.1z"/>
	<path class="st0" d="M83.3,48.3c0.9,0,1.7-0.7,1.7-1.7v-10c0-0.9-0.7-1.7-1.7-1.7c-0.9,0-1.7,0.7-1.7,1.7v10
		C81.7,47.6,82.4,48.3,83.3,48.3z"/>
	<path class="st0" d="M91.7,50c0.5,0,1-0.2,1.3-0.7l5-6.7c0.6-0.7,0.4-1.8-0.3-2.3c-0.7-0.6-1.8-0.4-2.3,0.3l-5,6.7
		c-0.6,0.7-0.4,1.8,0.3,2.3C91,49.9,91.3,50,91.7,50z"/>
	<path class="st0" d="M68.7,42.7l5,6.7C74,49.8,74.5,50,75,50c0.3,0,0.7-0.1,1-0.3c0.7-0.6,0.9-1.6,0.3-2.3l-5-6.7
		c-0.6-0.7-1.6-0.9-2.3-0.3C68.3,40.9,68.1,41.9,68.7,42.7z"/>
</g>
</svg>
