<?xml version="1.0" encoding="utf-8"?>
<!-- Generator: Adobe Illustrator 20.1.0, SVG Export Plug-In . SVG Version: 6.00 Build 0)  -->
<svg version="1.1" id="Layer_1" xmlns="http://www.w3.org/2000/svg" xmlns:xlink="http://www.w3.org/1999/xlink" x="0px" y="0px"
	 viewBox="0 0 150 150" style="enable-background:new 0 0 150 150;" xml:space="preserve">
<style type="text/css">
	.st0{fill:#EC0606;}
</style>
<title>21 - Calendar (interaction, communication, essential, outline)</title>
<desc>Created with Sketch.</desc>
<g>
	<path class="st0" d="M123.3,43.3h-14.5c-2.7-1.3-18.8-10-27.7-15.7C79.7,26,77.3,25,75,25s-4.7,1-6.2,2.7
		C60,33.3,43.8,42,41.2,43.3H26.7c-1,0-1.7,0.7-1.7,1.7v78.3c0,1,0.7,1.7,1.7,1.7h96.7c1,0,1.7-0.7,1.7-1.7V45
		C125,44,124.3,43.3,123.3,43.3z M70,33.3L70,33.3L70,33.3L70,33.3L70,33.3L70,33.3L70,33.3L70,33.3L70,33.3L70,33.3
		c0-0.2,0-0.2,0-0.2l0,0l0,0l0,0l0,0l0,0c0-1.5,0.7-2.5,1.3-3.2l0.2-0.2c0.8-1,2.2-1.5,3.5-1.5s2.7,0.5,3.5,1.5l0.2,0.2
		c0.7,0.7,1.3,1.7,1.3,3.2v0.2l0,0l0,0l0,0l0,0l0,0l0,0l0,0l0,0l0,0c0,2.8-2.2,5-5,5S70,36.2,70,33.3L70,33.3z M66.7,33
		c0,0.2,0,0.3,0,0.3l0,0l0,0l0,0c0,4.7,3.7,8.3,8.3,8.3s8.3-3.7,8.3-8.3l0,0l0,0c0-0.2,0-0.3,0-0.3c6,3.5,13.3,7.7,18.5,10.3H48.2
		C53.3,40.7,60.7,36.5,66.7,33z M41.7,46.7h66.7h13.3V55H28.3v-8.3H41.7z M28.3,121.7V58.3h93.3v63.3H28.3z"/>
	<circle class="st0" cx="63.3" cy="71.7" r="1.7"/>
	<circle class="st0" cx="75" cy="71.7" r="1.7"/>
	<circle class="st0" cx="86.7" cy="71.7" r="1.7"/>
	<circle class="st0" cx="98.3" cy="71.7" r="1.7"/>
	<circle class="st0" cx="110" cy="71.7" r="1.7"/>
	<circle class="st0" cx="40" cy="85" r="1.7"/>
	<circle class="st0" cx="51.7" cy="85" r="1.7"/>
	<circle class="st0" cx="63.3" cy="85" r="1.7"/>
	<circle class="st0" cx="75" cy="85" r="1.7"/>
	<circle class="st0" cx="86.7" cy="85" r="1.7"/>
	<circle class="st0" cx="98.3" cy="85" r="1.7"/>
	<circle class="st0" cx="110" cy="85" r="1.7"/>
	<circle class="st0" cx="40" cy="96.7" r="1.7"/>
	<circle class="st0" cx="51.7" cy="96.7" r="1.7"/>
	<circle class="st0" cx="63.3" cy="96.7" r="1.7"/>
	<circle class="st0" cx="75" cy="96.7" r="1.7"/>
	<circle class="st0" cx="86.7" cy="96.7" r="1.7"/>
	<circle class="st0" cx="98.3" cy="96.7" r="1.7"/>
	<circle class="st0" cx="110" cy="96.7" r="1.7"/>
	<circle class="st0" cx="40" cy="110" r="1.7"/>
	<circle class="st0" cx="51.7" cy="110" r="1.7"/>
	<circle class="st0" cx="63.3" cy="110" r="1.7"/>
	<circle class="st0" cx="75" cy="110" r="1.7"/>
	<circle class="st0" cx="86.7" cy="110" r="1.7"/>
</g>
</svg>
