<?xml version="1.0" encoding="utf-8"?>
<!-- Generator: Adobe Illustrator 20.1.0, SVG Export Plug-In . SVG Version: 6.00 Build 0)  -->
<svg version="1.1" id="Layer_1" xmlns="http://www.w3.org/2000/svg" xmlns:xlink="http://www.w3.org/1999/xlink" x="0px" y="0px"
	 viewBox="0 0 150 150" style="enable-background:new 0 0 150 150;" xml:space="preserve">
<style type="text/css">
	.st0{fill:#EC0606;}
</style>
<g>
	<path class="st0" d="M122.9,107.8c-1,0-1.8,0.8-1.8,1.8v9.2L104.3,102c6.6-7.1,10.8-16.7,10.8-27.2c0-22-17.9-39.9-39.9-39.9
		c-10.4,0-19.9,4-27,10.5L31.4,28.8h9.2c1,0,1.8-0.8,1.8-1.8c0-1-0.8-1.8-1.8-1.8H27.1c-0.1,0-0.2,0-0.4,0.1c-0.1,0-0.1,0.1-0.2,0.1
		c-0.1,0-0.1,0.1-0.2,0.1s-0.1,0.1-0.2,0.1c-0.1,0-0.1,0.1-0.1,0.1c-0.2,0.1-0.4,0.3-0.5,0.5c0,0.1-0.1,0.1-0.1,0.1
		c-0.1,0.1-0.1,0.1-0.1,0.2c0,0.1-0.1,0.1-0.1,0.2c0,0.1-0.1,0.1-0.1,0.2c0,0.1-0.1,0.2-0.1,0.4v13.6c0,1,0.8,1.8,1.8,1.8
		c1,0,1.8-0.8,1.8-1.8v-9.3L45.5,48C39.1,55,35.2,64.5,35.2,74.8c0,10.4,4,19.9,10.6,27.1l-16.9,16.9v-9.2c0-1-0.8-1.8-1.8-1.8
		c-1,0-1.8,0.8-1.8,1.8v13.6c0,0.1,0,0.2,0.1,0.4c0,0.1,0.1,0.1,0.1,0.2s0.1,0.1,0.1,0.2s0.1,0.1,0.1,0.2c0,0.1,0.1,0.1,0.1,0.1
		c0.1,0.2,0.3,0.4,0.5,0.5c0.1,0,0.1,0.1,0.1,0.1c0.1,0.1,0.1,0.1,0.2,0.1c0.1,0,0.1,0.1,0.2,0.1c0.1,0,0.1,0.1,0.2,0.1
		c0.1,0,0.2,0.1,0.4,0.1h13.6c1,0,1.8-0.8,1.8-1.8s-0.8-1.8-1.8-1.8h-9.3l16.9-16.9c7.1,6.4,16.5,10.4,26.8,10.4
		c10.2,0,19.6-3.9,26.6-10.2l16.8,16.8h-9.2c-1,0-1.8,0.8-1.8,1.8s0.8,1.8,1.8,1.8h13.5c0.1,0,0.2,0,0.4-0.1c0.1,0,0.1-0.1,0.2-0.1
		c0.1,0,0.1-0.1,0.2-0.1s0.1-0.1,0.2-0.1c0.1,0,0.1-0.1,0.1-0.1c0.2-0.1,0.4-0.3,0.5-0.5c0-0.1,0.1-0.1,0.1-0.1
		c0.1-0.1,0.1-0.1,0.1-0.2c0-0.1,0.1-0.1,0.1-0.2s0.1-0.1,0.1-0.2c0-0.1,0.1-0.2,0.1-0.4v-13.6C124.7,108.6,123.9,107.8,122.9,107.8
		z M38.8,74.8c0-20.1,16.3-36.3,36.3-36.3s36.3,16.3,36.3,36.3s-16.3,36.3-36.3,36.3S38.8,94.9,38.8,74.8z"/>
	<path class="st0" d="M124.6,26.6c0-0.1-0.1-0.1-0.1-0.2s-0.1-0.1-0.1-0.2s-0.1-0.1-0.1-0.2c0-0.1-0.1-0.1-0.1-0.1
		c-0.1-0.2-0.3-0.4-0.5-0.5c-0.1,0-0.1-0.1-0.1-0.1c-0.1-0.1-0.1-0.1-0.2-0.1c-0.1,0-0.1-0.1-0.2-0.1s-0.1-0.1-0.2-0.1
		c-0.1,0-0.2-0.1-0.4-0.1h-13.6c-1,0-1.8,0.8-1.8,1.8s0.8,1.8,1.8,1.8h9.2l-7.7,7.7c-0.7,0.7-0.7,1.9,0,2.5c0.4,0.4,0.8,0.5,1.3,0.5
		s0.9-0.2,1.3-0.5l7.8-7.7v9.2c0,1,0.8,1.8,1.8,1.8c1,0,1.8-0.8,1.8-1.8V27C124.7,26.8,124.7,26.7,124.6,26.6z"/>
	<path class="st0" d="M106.3,45.3c0.5,0,0.9-0.2,1.3-0.5l1.3-1.3c0.7-0.7,0.7-1.9,0-2.5c-0.7-0.7-1.9-0.7-2.5,0l-1.3,1.3
		c-0.7,0.7-0.7,1.9,0,2.5C105.4,45.1,105.9,45.3,106.3,45.3z"/>
	<path class="st0" d="M80.5,77.9c-0.5,0-1,0.2-1.3,0.5l-4.8,4.7l-3.7-3.8c-0.1-0.1-0.3-0.3-0.5-0.4c-2.4-1.1-5.1-1.1-7.8-0.1
		c-4.3,1.8-7.7,5.9-8.8,9c-1.7,4.8,1.7,7.8,3.8,8.8c0.2,0.1,0.5,0.2,0.8,0.2h33.4c0.2,0,0.5-0.1,0.7-0.1c2-0.8,3.2-2,3.8-3.7
		c0.8-2.2,0.3-4.9-1.6-8.3C90.9,78.1,80.9,77.9,80.5,77.9z M92.6,91.9c-0.1,0.4-0.4,1-1.5,1.4H58.6c-0.8-0.5-2.5-1.8-1.7-4.2
		s3.6-5.6,6.8-6.9c1.7-0.7,3.2-0.8,4.6-0.2l4.7,4.9c0.7,0.7,1.8,0.7,2.5,0.1l5.5-5.3c2,0.2,8,1,10.1,4.9
		C92.9,89.5,92.9,91.1,92.6,91.9z"/>
	<path class="st0" d="M74.7,77.3c6.6,0,9.2-6.8,9.3-7.1c0.1-0.2,0.1-0.4,0.1-0.6V56.3c0-0.1,0-0.1,0-0.1c-0.1-2.6-2-7.4-8.1-7.4
		c-10,0-10.8,5.7-10.8,7.5v13.1c0,0.2,0.1,0.4,0.1,0.6C65.5,70.2,68.1,77.3,74.7,77.3z M80.6,69.2c-0.5,1-2.3,4.4-5.9,4.4
		S69.3,70,68.9,69v-6.7c6-0.7,9.4-4.7,11-8.1c0.6,0.9,0.7,1.8,0.7,2.2V69.2z M76.1,52.4c0.2,0,0.4,0,0.6,0c-0.9,2.1-3,5.5-7.8,6.2
		v-2.3C68.9,52.8,73.9,52.4,76.1,52.4z"/>
</g>
</svg>
