<?xml version="1.0" encoding="utf-8"?>
<!-- Generator: Adobe Illustrator 20.1.0, SVG Export Plug-In . SVG Version: 6.00 Build 0)  -->
<svg version="1.1" id="Layer_1" xmlns="http://www.w3.org/2000/svg" xmlns:xlink="http://www.w3.org/1999/xlink" x="0px" y="0px"
	 viewBox="0 0 150 150" style="enable-background:new 0 0 150 150;" xml:space="preserve">
<style type="text/css">
	.st0{fill:#FFFFFF;}
	.st1{fill:#F4F4F4;}
	.st2{fill:#EC0606;}
</style>
<circle class="st0" cx="74.4" cy="72.2" r="65"/>
<g>
	<path class="st1" d="M83.8,80.7c-0.8,0-1.6,0.3-2.2,0.8l-7.9,7.7L67.5,83c-0.1-0.1-0.5-0.5-0.8-0.7c-4-1.8-8.5-1.8-12.9-0.1
		C46.7,85.1,41,92,39.1,97c-2.8,7.9,2.8,12.9,6.3,14.6c0.3,0.1,0.8,0.3,1.4,0.3H102c0.3,0,0.8-0.2,1.1-0.2c3.3-1.4,5.3-3.3,6.3-6.2
		c1.4-3.6,0.5-8-2.5-13.7C101,81,84.5,80.7,83.8,80.7z M103.9,103.9c-0.2,0.7-0.7,1.6-2.5,2.3H47.5c-1.4-0.8-4.1-3-2.8-6.9
		c1.2-4,6-9.3,11.3-11.5c2.9-1.1,5.4-1.4,7.6-0.3l7.7,8c1.1,1.1,3,1.1,4.1,0.2l9.1-8.7c3.3,0.3,13.2,1.6,16.8,8
		C104.2,100,104.2,102.5,103.9,103.9z"/>
	<path class="st1" d="M74.1,79.7c10.9,0,15.3-11.3,15.5-11.7c0.1-0.3,0.1-0.7,0.1-0.9V44.9c0-0.1,0-0.1,0-0.1
		c-0.1-4.4-3.3-12.3-13.4-12.3c-16.5,0-17.8,9.5-17.8,12.4v21.7c0,0.3,0.1,0.7,0.1,0.9C58.9,67.9,63.2,79.7,74.1,79.7z M84,66.4
		c-0.8,1.6-3.8,7.3-9.8,7.3s-9-6-9.6-7.6V54.9c10-1.1,15.6-7.8,18.2-13.4c0.9,1.5,1.1,3,1.1,3.6L84,66.4L84,66.4L84,66.4z
		 M76.4,38.6c0.3,0,0.7,0,0.9,0c-1.5,3.5-4.9,9.1-12.9,10.2v-3.8C64.6,39.2,72.9,38.6,76.4,38.6z"/>
</g>
<circle class="st2" cx="115.7" cy="120" r="23.7"/>
<g>
	<g>
		<path class="st0" d="M117.3,127.3h-3l-1.1-3.2h-5.5l-1.1,3.2h-3l5.3-13.9h3L117.3,127.3z M110.2,117.3l-1.6,4.4h3.8l-1.6-4.4
			l-0.3-0.8L110.2,117.3z"/>
	</g>
	<g>
		<path class="st0" d="M126.8,120.5v6.6h-2.2l-0.2-1.3c-0.5,0.8-1.5,1.5-2.8,1.5c-1.8,0-3-1.1-3-2.8c0-1.9,1.4-2.7,3.2-3l2.6-0.4
			v-0.5c0-0.9-0.5-1.5-1.4-1.5c-0.8,0-1.5,0.5-1.5,1.4h-2.6c0.1-2,1.6-3.5,3.9-3.5C125.2,116.9,126.8,118.1,126.8,120.5z
			 M122.3,123.2c-0.7,0.1-1.1,0.4-1.1,1.1c0,0.5,0.5,1,1.2,1c0.7,0,1.2-0.3,1.6-1c0.3-0.3,0.5-0.8,0.5-1.4v-0.3L122.3,123.2z"/>
	</g>
</g>
</svg>
