<?xml version="1.0" encoding="utf-8"?>
<!-- Generator: Adobe Illustrator 20.1.0, SVG Export Plug-In . SVG Version: 6.00 Build 0)  -->
<svg version="1.1" id="Layer_1" xmlns="http://www.w3.org/2000/svg" xmlns:xlink="http://www.w3.org/1999/xlink" x="0px" y="0px"
	 viewBox="0 0 150 150" style="enable-background:new 0 0 150 150;" xml:space="preserve">
<style type="text/css">
	.st0{fill:#FFFFFF;}
	.st1{fill:#F4F4F4;}
	.st2{fill:#EC0606;}
</style>
<g>
	<circle class="st0" cx="74.1" cy="73.2" r="65"/>
	<g>
		<path class="st1" d="M83.5,81.7c-0.8,0-1.6,0.3-2.2,0.8l-7.9,7.8L67.3,84c-0.1-0.1-0.5-0.5-0.8-0.7c-4-1.8-8.4-1.8-12.9-0.1
			c-7.1,3-12.7,9.8-14.6,14.9c-2.9,7.9,2.9,12.9,6.3,14.6c0.3,0.1,0.8,0.3,1.4,0.3h55.2c0.3,0,0.8-0.1,1.1-0.1
			c3.3-1.4,5.3-3.3,6.3-6.1c1.4-3.7,0.5-8-2.6-13.8C100.7,82.1,84.2,81.7,83.5,81.7z M103.5,104.9c-0.1,0.7-0.7,1.6-2.5,2.3H47.3
			c-1.4-0.8-4.1-3-2.9-6.9c1.4-4,6-9.3,11.3-11.4c2.9-1.1,5.3-1.4,7.6-0.3l7.8,8c1.1,1.1,3,1.1,4.1,0.1l9.1-8.7
			c3.3,0.3,13.2,1.6,16.8,8C103.9,100.9,103.9,103.6,103.5,104.9z"/>
		<path class="st1" d="M73.8,80.7c10.9,0,15.3-11.3,15.4-11.7c0.1-0.3,0.1-0.7,0.1-1V46c0-0.1,0-0.1,0-0.1
			c-0.1-4.4-3.3-12.3-13.4-12.3C59.5,33.6,58.2,43,58.2,46v21.7c0,0.3,0.1,0.7,0.1,1C58.7,69,62.9,80.7,73.8,80.7z M83.6,67.4
			c-0.8,1.6-3.8,7.2-9.8,7.2c-6,0-9-6-9.5-7.6v-11c9.9-1.1,15.5-7.8,18.3-13.4c1,1.5,1.1,3,1.1,3.7C83.6,46.3,83.6,67.4,83.6,67.4z
			 M76.1,39.6c0.3,0,0.7,0,1,0c-1.5,3.4-4.9,9.1-12.9,10.2V46C64.3,40.3,72.6,39.6,76.1,39.6z"/>
	</g>
	<circle class="st2" cx="115.3" cy="120.9" r="23.7"/>
	<g>
		<g>
			<polygon class="st0" points="109.5,128.4 102,121.1 109.5,113.6 111.2,115.4 105.6,121.1 111.2,126.7 			"/>
		</g>
		<g>
			<polygon class="st0" points="121.1,128.4 119.3,126.7 125.1,121.1 119.3,115.4 121.1,113.6 128.6,121.1 			"/>
		</g>
	</g>
</g>
</svg>
