<?xml version="1.0" encoding="utf-8"?>
<!-- Generator: Adobe Illustrator 20.1.0, SVG Export Plug-In . SVG Version: 6.00 Build 0)  -->
<svg version="1.1" id="Layer_1" xmlns="http://www.w3.org/2000/svg" xmlns:xlink="http://www.w3.org/1999/xlink" x="0px" y="0px"
	 viewBox="0 0 470.6 117.3" style="enable-background:new 0 0 470.6 117.3;" xml:space="preserve">
<style type="text/css">
	.st0{fill:#EC0606;}
</style>
<g>
	<path class="st0" d="M364.3,67.4c-1.3,1.7-1.7,3.6-0.7,5.7c0.9,2,2.7,2.7,4.8,2.7c5,0,10,0,15,0.1c3.3,0,6.7,0.3,9.9,1.3
		c7.6,2.4,12,8.3,12.2,16.2c0.3,11.8-6.1,19.9-18.1,22.7c-8.3,1.9-16.6,1.6-24.8-0.6c-3.4-0.9-6.5-2.3-9.2-4.6
		c-5.2-4.3-7.5-12-5.4-18.1c0.9-2.8,2.9-4.8,5.1-6.7c-9-8.5-8.8-18.9-0.8-27.1c0.1-0.4-0.1-0.8-0.3-1.1c-7.8-11.7-3.1-29.8,15-34.1
		c4.9-1.2,9.9-1.2,14.9,0c1.9,0.5,3.9,0.6,5.8,0.6c6.8,0,13.5,0,20.8,0c0.1,4.9,0.2,9.5-0.1,14.5c-3,0-5.8,0-8.5,0
		c-0.3,2.1,0.4,3.7,0.5,5.3c0.5,10.7-4.9,18.9-15,22.5c-6.2,2.2-12.5,2.1-18.9,0.8c-0.5-0.1-0.9-0.2-1.4-0.3
		C364.9,67.2,364.7,67.3,364.3,67.4z M376.8,89.1c-2.4,0-4.1-0.1-5.9,0c-3.3,0.2-5.7,2.2-6.4,5.1c-0.8,3,0.5,6.4,3.3,7.8
		c5.4,2.8,11.1,2.8,16.8,0.6c0.7-0.3,1.4-0.8,1.9-1.3c2-1.9,2.7-4.3,2.1-7c-0.6-2.7-2.5-4.1-5-4.8C381,88.9,378.6,89.2,376.8,89.1z
		 M374.7,55.6c5.3,0,9.2-4.2,9.1-9.8c-0.1-5.8-3.9-9.8-9.2-9.8c-5.3,0.1-9.1,4.2-9.1,9.9C365.5,51.5,369.4,55.6,374.7,55.6z"/>
	<path class="st0" d="M470.5,61.9c-14.7,0-29,0-43.3,0c-1,4.7,2.5,10.1,7.8,12.3c7.4,3.1,14.6,0.8,19-6c5.3,0,10.7,0,16.3,0
		c-1.8,7-5.3,12.6-11,16.8c-10.8,7.9-32.8,7.9-43.5-6.1c-3.9-5.2-6.1-11-6.7-17.3c-1-10.3,0.8-20,7.7-28.1
		c6.8-7.9,15.6-10.9,25.8-10.4c2.6,0.1,5.3,0.4,7.8,1.2c11.3,3.4,17.2,11.5,19.4,22.6C470.8,51.6,470.7,56.5,470.5,61.9z
		 M427.1,49.5c8.6,0,17.3,0,25.9,0c0.3-7.2-5.4-12.5-12.9-12.3C432.8,37.4,426.6,43.1,427.1,49.5z"/>
	<path class="st0" d="M199.4,61.9c-1,4.3,3.2,10.8,8.7,12.6c7.4,2.4,13.9,0.3,18.3-6.3c5.3,0,10.6,0,16.3,0
		c-1.9,7.1-5.4,12.7-11.3,16.9c-11.1,7.9-34.3,8.1-44.8-8.3c-4.6-7.2-6-15.1-5.4-23.4c0.5-7.5,3-14.4,8-20.2
		c6.7-7.7,15.3-10.6,25.3-10.3c3.9,0.1,7.8,0.8,11.5,2.4c9.2,4,14,11.3,16.1,20.8c0.9,4.3,1.1,8.8,1.1,13.2c0,0.8,0.1,1.6-0.8,2.7
		C228.3,61.9,213.8,61.9,199.4,61.9z M199.3,49.5c8.7,0,17.5,0,26.2,0c-0.1-7.2-5.2-12.1-12.5-12.3
		C205.6,37.1,199.5,42.5,199.3,49.5z"/>
	<path class="st0" d="M118.9,61.9c-14.4,0-28.9,0-43.3,0c-0.7,4.9,2.9,10.3,8,12.3c7.3,3,14,0.8,19-6.1c5.2,0,10.5,0,15.7,0
		c0.6,0.7,0.2,1.2,0.1,1.8c-3.8,12.1-13.5,19.6-26.2,20.2C82.7,90.6,74,88.6,67,81.8c-5.5-5.3-8.4-12-9.3-19.5
		c-0.7-5.7-0.4-11.4,1.2-16.9c4.4-14.9,17.5-23.5,33-22.4c12.2,0.9,22.6,7.6,26.1,22c1,4.2,1.4,8.5,1.4,12.9
		C119.3,59,119.6,60.3,118.9,61.9z M101.7,49.5c-0.1-7.3-5.3-12.3-12.6-12.3c-7.4-0.1-13.4,5.3-13.6,12.3
		C84.2,49.5,92.8,49.5,101.7,49.5z"/>
	<path class="st0" d="M306.2,45.9c-5.3,0-10.5,0-15.7,0c-0.8-2.3-0.1-4.4,0.5-6.4c3-9.3,9.7-14.6,19.2-16.1c5.9-1,11.8-0.6,17.4,1.6
		c8.6,3.3,13.3,9.8,13.6,18.8c0.4,14.4,0.1,28.9,0.1,43.3c0,0.5,0,1-0.6,1.7c-4.3,0.4-8.9,0.2-13.3,0.1c-1.7-1.8-0.7-4.2-1.7-5.9
		c-0.9-0.3-1.2,0.4-1.6,0.8c-7.1,7-15.5,8-24.5,5c-7.6-2.5-12-10.1-11.5-18.3c0.6-9.6,5.4-14.9,16-17.6c6.1-1.5,12.3-2.4,18.5-3.6
		c0.5-0.1,1-0.1,1.3-0.5c1.2-5-1.1-9.5-5.5-10.8C312.6,36.4,308.4,39.1,306.2,45.9z M323.8,60.9c-3.7,0.8-7.3,1.5-10.8,2.2
		c-1.7,0.4-3.4,0.8-5,1.8c-2.2,1.4-3.2,3.7-2.7,6.4c0.4,2.2,2.2,3.9,4.6,4.4C318,77.3,325.6,69.5,323.8,60.9z"/>
	<path class="st0" d="M17.9,71.8c12.3,0.5,24.2-0.1,36.4,0.3c0,5.5,0,10.9,0,16.3c-0.8,0.8-1.8,0.5-2.8,0.5c-11.4,0-22.8,0-34.2,0
		c-1.7,0-3-0.4-4.2-1.6c-4.3-4-8.7-8-13.1-12C0,50.5,0,25.5,0,0.1C5.9,0,11.8,0,17.9,0.1C17.9,24.1,17.9,47.8,17.9,71.8z"/>
	<path class="st0" d="M151,65.6c4.4-13.7,8.7-27.3,13.1-41.1c6.1,0,12.1,0,18.5,0c-7.8,21.6-15.5,42.8-23.2,64.2
		c-5.7,0.3-11.3,0.2-17.2,0.1c-7.7-21.3-15.4-42.6-23.2-64.2c6.2,0,12.2,0,18.5,0c4.3,13.5,8.7,27.2,13,40.9
		C150.6,65.5,150.8,65.5,151,65.6z"/>
	<path class="st0" d="M268.1,32.4c2.7-3.9,6.2-6.7,10.7-7.9c2.4-0.6,4.8-1.1,7.4-0.5c0,5.4,0,10.8,0,16.2c-1,0.9-2.4,0.7-3.6,0.9
		c-9.1,1.3-13.8,6.4-13.9,15.6c-0.1,9.7,0,19.5,0,29.2c0,0.8-0.1,1.6-0.1,2.9c-5.6,0.2-11.1,0.1-16.8,0.1c0-21.6,0-42.8,0-64.3
		c4.8,0,9.4,0,14.3,0C267.4,26.8,266.5,29.7,268.1,32.4z"/>
</g>
</svg>
