<?xml version="1.0" encoding="utf-8"?>
<!-- Generator: Adobe Illustrator 20.1.0, SVG Export Plug-In . SVG Version: 6.00 Build 0)  -->
<svg version="1.1" id="Layer_1" xmlns="http://www.w3.org/2000/svg" xmlns:xlink="http://www.w3.org/1999/xlink" x="0px" y="0px"
	 viewBox="0 0 144 54" style="enable-background:new 0 0 144 54;" xml:space="preserve">
<style type="text/css">
	.st0{fill:#727272;}
</style>
<g>
	<g>
		<g>
			<path class="st0" d="M142.2,7.9c0,1.3-1,2.4-2.4,2.4s-2.4-1-2.4-2.4c0-1.3,1-2.4,2.4-2.4S142.2,6.6,142.2,7.9z M137.9,7.9
				c0,1.1,0.8,2,2,2c1.1,0,2-0.9,2-2c0-1.1-0.9-2-2-2C138.7,5.9,137.9,6.8,137.9,7.9z M139.3,9.3H139V6.6h1c0.6,0,0.9,0.3,0.9,0.8
				c0,0.5-0.3,0.7-0.7,0.8l0.8,1.2h-0.4l-0.8-1.2h-0.6V9.3z M139.8,7.8c0.4,0,0.8,0,0.8-0.5c0-0.4-0.3-0.5-0.6-0.5h-0.6v0.9
				C139.3,7.8,139.8,7.8,139.8,7.8z"/>
		</g>
		<g>
			<polygon class="st0" points="48.6,48.6 49.2,48.6 49.2,4.8 4.8,4.8 4.8,49.2 49.2,49.2 49.2,48.6 48.6,48.6 48.6,47.9 6.1,47.9 
				6.1,6.1 47.9,6.1 47.9,48.6 48.6,48.6 48.6,47.9 			"/>
			<polygon class="st0" points="91.6,48.6 92.3,48.6 92.3,4.8 47.9,4.8 47.9,49.2 92.3,49.2 92.3,48.6 91.6,48.6 91.6,47.9 
				49.2,47.9 49.2,6.1 91,6.1 91,48.6 91.6,48.6 91.6,47.9 			"/>
			<polygon class="st0" points="134.7,48.6 135.3,48.6 135.3,4.8 90.9,4.8 90.9,49.2 135.3,49.2 135.3,48.6 134.7,48.6 134.7,47.9 
				92.2,47.9 92.2,6.1 134,6.1 134,48.6 134.7,48.6 134.7,47.9 			"/>
			<path class="st0" d="M31.2,38V25.3c0-1.9-0.4-3.2-1.1-4.1c-0.7-0.9-1.9-1.3-3.5-1.3c-0.8,0-1.6,0.2-2.4,0.6c-0.9,0.4-1.5,1-2,1.6
				V38H17V15.9h3.7l0.9,2.1c1.4-1.6,3.5-2.4,6.2-2.4c2.6,0,4.7,0.8,6.2,2.4c1.5,1.6,2.3,3.8,2.3,6.6V38L31.2,38L31.2,38z"/>
			<path class="st0" d="M68.5,20c2.4,0,4.1,0.5,5.1,1.6c1,1.1,1.5,2.9,1.5,5.5c0,2.4-0.5,4.2-1.6,5.4c-1,1.1-2.7,1.7-5.1,1.7
				c-1.2,0-2.3-0.4-3.3-1.1V21.4C66.2,20.4,67.3,20,68.5,20z M69.7,38.4c3.4,0,6-1,8-2.9c1.9-1.9,2.9-4.7,2.9-8.3
				c0-7.7-3.5-11.6-10.6-11.6c-1.9,0-3.5,0.6-4.8,1.9v-1.5h-5.2v30.7h5.2v-9.2C66.6,38.1,68.1,38.4,69.7,38.4z"/>
			<path class="st0" d="M118.9,20.8c-0.9-0.6-1.9-0.9-3-0.9c-1.2,0-2.2,0.5-3.2,1.6c-0.9,1.1-1.4,2.4-1.4,4V38h-5.2V15.9h5.2V18
				c1.4-1.7,3.3-2.5,5.7-2.5c1.7,0,3.1,0.3,4,0.8L118.9,20.8z"/>
		</g>
	</g>
</g>
</svg>
