<?xml version="1.0" encoding="utf-8"?>
<!-- Generator: Adobe Illustrator 20.1.0, SVG Export Plug-In . SVG Version: 6.00 Build 0)  -->
<svg version="1.1" id="Layer_1" xmlns="http://www.w3.org/2000/svg" xmlns:xlink="http://www.w3.org/1999/xlink" x="0px" y="0px"
	 viewBox="0 0 648 236.1" style="enable-background:new 0 0 648 236.1;" xml:space="preserve">
<style type="text/css">
	.st0{fill:#727272;}
</style>
<g>
	<path class="st0" d="M648,134c-1.4,7.7-2.3,15.5-4.2,23c-11,43.5-39.6,68.1-83.1,75.9c-11.2,2-22.8,2.8-34.3,2.9
		c-32,0.4-64,0.1-96,0.1c-6.7,0-6.8,0-6.8-6.5c0-74.3,0-148.6-0.1-223c0-5.2,1.7-6.4,6.6-6.4c36,0.2,72,0,108,0.1
		c15.9,0.1,31.6,1.3,46.7,7.1c33.6,12.9,51.3,38.8,59.3,72.6c1.7,7.3,2.6,14.7,3.9,22.1C648,112.7,648,123.3,648,134z M516.6,175.1
		c0-0.1,0-0.2,0-0.2c5,0,10,0.3,15-0.1c17.9-1.5,31-10,38.2-26.9c5.5-12.8,6.2-26.2,4.9-39.7c-2.2-23.3-16.2-40.3-38.6-44.4
		c-12-2.2-24.5-1.4-36.8-1.9c-3-0.1-3.4,2-3.4,4.4c0.1,34.8,0.3,69.6,0.3,104.4c0,3.6,1.5,4.7,4.8,4.6
		C506.2,175,511.4,175.1,516.6,175.1z"/>
	<path class="st0" d="M0,0c2.5,0.1,5,0.2,7.5,0.2c62.7,0,125.3,0,188,0c7.8,0,7.8,0,7.8,8c0,15.8-0.1,31.7,0.1,47.5
		c0.1,4.2-1.4,5.5-5.5,5.4c-18-0.2-36,0.1-54-0.2c-4.6-0.1-5.9,1.4-5.9,6c0.1,54,0.1,108,0.1,162c0,7.1,0,7.1-7.1,7.1
		c-19.7,0-39.3,0-59,0c-7,0-7,0-7-7.3c0-53.3,0-106.7,0-160c0-7.7,0-7.7-8-7.7c-19,0-38,0-57,0C0,40.7,0,20.3,0,0z"/>
	<path class="st0" d="M213.9,118c0-36.8,0-73.7,0-110.5c0-7.3,0-7.3,7.1-7.3c61.5,0,123,0,184.5,0c6.6,0,6.7,0,6.7,6.6
		c0,15.5,0,31,0,46.5c0,7.7,0,7.7-7.5,7.7c-36.8,0-73.7,0-110.5,0c-7,0-7,0-7,7.1c0,5.3,0.2,10.7-0.1,16c-0.2,3.6,1.1,5.1,4.8,5
		c8.3-0.2,16.7-0.1,25-0.1c29.5,0,59,0,88.5,0c6.7,0,6.8,0,6.8,6.5c0,14.8-0.2,29.7,0.1,44.5c0.1,4.8-1.2,6.3-6.1,6.2
		c-37.7-0.2-75.3,0-113-0.2c-4.8,0-6.5,1.3-6.1,6.1c0.4,5.6,0.4,11.3,0,17c-0.3,4.6,1.4,6,5.9,6c35.5-0.2,71-0.1,106.5-0.1
		c2.8,0,5.7,0.1,8.5,0c2.8-0.1,4.3,0.9,4.2,4.1c-0.1,17.7-0.1,35.3,0,53c0,2.8-1.3,3.9-3.9,3.8c-1.3,0-2.7,0-4,0
		c-60.8,0-121.7,0-182.5,0c-7.8,0-7.8,0-7.8-8C213.9,191.4,213.9,154.7,213.9,118z"/>
</g>
</svg>
