<?xml version="1.0" encoding="utf-8"?>
<!-- Generator: Adobe Illustrator 20.1.0, SVG Export Plug-In . SVG Version: 6.00 Build 0)  -->
<svg version="1.1" id="Layer_1" xmlns="http://www.w3.org/2000/svg" xmlns:xlink="http://www.w3.org/1999/xlink" x="0px" y="0px"
	 viewBox="0 0 1024 1024" style="enable-background:new 0 0 1024 1024;" xml:space="preserve">
<style type="text/css">
	.st0{fill:#727272;}
</style>
<g>
	<path class="st0" d="M1024,1024c-341.3,0-682.7,0-1024,0C0,682.7,0,341.3,0,0c341.3,0,682.7,0,1024,0
		C1024,341.3,1024,682.7,1024,1024z M107.8,912.2c8.3,0,15.8,0.1,23.2,0c21.3-0.3,42.7,0.5,63.9-1.3c26.3-2.1,45.5-15.4,53.7-41.5
		c2.4-7.6,4.2-15.6,4.4-23.5c0.7-21.6,0.3-43.3,0.5-64.9c0.2-25.2,0.6-50.3,0.7-75.4c0.1-17-5.2-32.1-17.8-44.1
		c-3.3-3.2-6.3-6.7-9.7-10.3c2.3-1.8,4.1-3.3,5.8-4.8c10.6-8.8,18.4-19.3,20.3-33.3c0.9-6.6,1.4-13.3,1.4-19.9
		c0.1-28.8-0.3-57.6-0.2-86.4c0-18.5,0-37-3.8-55.2c-5.7-27.3-21.3-44.8-49.5-49.2c-10.5-1.6-21.2-2-31.8-2.1c-18-0.2-36,0.4-54,0.5
		c-7.2,0-7.2-0.1-7.2,6.8c0,166,0,331.9,0,497.9C107.8,907.5,107.8,909.5,107.8,912.2z M526.9,911.8c21.1,0,41.5,0,62.3,0
		c-15.7-170.4-31.3-340.5-47-510.8c-22.3,0-44.2,0-67.5,0c-15.5,170.3-31,340.5-46.5,510.8c18.8,0,36.2,0,53.8,0
		c2.1-31,4.2-61.6,6.4-92.5c10.7,0,20,0,29.3,0c3.5,0,5.2,1.3,5.3,5.4c0.8,22.8,1.9,45.6,2.9,68.4
		C526.2,899.2,526.6,905.4,526.9,911.8z M604.2,761.8c-0.3,1.5-0.5,2.1-0.5,2.8c0.1,22-0.5,44,0.5,65.9c0.8,16.8,4.4,33.3,11.4,48.9
		c8.8,19.6,23.1,33,44.5,37.2c9,1.8,18.6,2.4,27.7,1.6c26.9-2.4,47.1-15.2,58.5-40.4c8.7-19.4,11.4-39.9,11-60.9
		c-0.6-37.4-8.7-73.4-22-108.1c-12.9-33.7-27.5-66.8-41.8-99.9c-15.6-36.2-27.5-73.3-27.9-113.1c-0.1-8.4,0.4-17,2-25.3
		c1.8-9.3,8-13.9,16.3-14.1c8.9-0.2,14.5,4,17.1,13.6c1.5,5.6,2.5,11.5,2.5,17.2c-0.1,13.1-1.1,26.3-1.5,39.4
		c-0.3,8.7-0.3,17.3-0.2,26c0,2.5,0.3,4.9,4.1,4.8c15.7-0.2,31.3-0.1,47-0.1c0.6,0,1.2-0.4,1.8-0.6c0.1-0.8,0.3-1.5,0.3-2.1
		c-0.4-27.3-0.3-54.6-1.4-81.9c-0.6-14.3-3.9-28.3-9.6-41.6c-7.9-18.4-21-31-40.9-34.6c-9.2-1.7-19-2-28.3-1.3
		c-24.5,2-43.6,13.4-56.2,34.9c-7.5,12.7-11.4,26.6-13.1,41.1c-3.5,29.4,0.4,58.1,7.6,86.6c9.4,37.3,24.3,72.5,39.9,107.5
		c20.3,45.6,38.1,92,44,142c1.5,12.6,2.4,25.3-1,37.7c-2.9,10.9-8.6,15.3-19.1,15.5c-9.7,0.2-16.2-4.5-18.9-15.1
		c-1.7-6.9-2.7-14.1-2.8-21.2c-0.1-11.3,0.9-22.6,1.2-33.9c0.2-7.5,0.2-15,0.4-22.5c0.1-4.2-1.4-6.2-6.2-6c-7.3,0.4-14.7,0.1-22,0.1
		C620.7,761.8,612.6,761.8,604.2,761.8z M405,400.7c-2.2,0-3.8,0-5.5,0c-37.5,0-75,0.1-112.5-0.1c-5.1,0-6.4,1.3-6.4,6.4
		c0.1,166.3,0.1,332.7,0.1,499c0,1.9,0,3.9,0,5.9c41.8,0,82.9,0,124.1,0c0-20.4,0-40.5,0-61.2c-21.4,0-42.4,0-63.4,0
		c0-57.1,0-113.5,0-170.7c14.7,0,29,0,43.2,0c0-21.1,0-41.5,0-62.4c-14.7,0-29,0-43.2,0c0-51.6,0-102.7,0-154.5
		c21.3,0,42.4,0,63.5,0C405,442.1,405,421.8,405,400.7z M922,401.1c-1.4-0.1-2.2-0.3-3-0.3c-47.7,0-95.3,0-143-0.1
		c-3.8,0-4.3,1.6-4.3,4.8c0.1,18.8,0,37.7,0.1,56.5c0,1.3,0.3,2.5,0.5,4.3c14.8,0,29.4,0,44.7,0c0,148.9,0,297.2,0,445.5
		c20.4,0,40.2,0,60.2,0c0.8-148.6-1.2-296.9,1.2-445.8c14.9,0,29.3,0,43.7,0C922,444.1,922,422.8,922,401.1z M472.8,346.8
		c18.7,0,36.7,1.3,54.5-0.3c21.7-1.9,30.7-11,35.3-32.4c2.1-10,3.2-20.4,3.3-30.7c0.5-34.3,0.3-68.6,0.5-102.9
		c0.1-14.5,0.3-29-3.3-43.2c-3.6-14.4-12.2-24.3-26.9-28c-5.3-1.3-10.8-2.3-16.2-2.4c-13.5-0.3-27-0.1-40.5-0.1
		c-6.8,0-6.8,0-6.8,6.7c0,75.8,0,151.6,0,227.4C472.8,342.7,472.8,344.5,472.8,346.8z M204.1,107c0,7.6,0,14.5,0,21.5
		c-0.1,70-0.2,139.9-0.3,209.9c0,2-0.3,4,0.1,6c0.2,1,1.4,2.6,2.1,2.6c9.9,0.2,19.8,0.1,30.3,0.1c0-34.6,0-68.5,0-102.8
		c9.1,0,17.5,0,26,0c3.3,0,4.5,1.5,4.5,5c-0.2,13-0.1,26-0.1,39c0,18,0,36,0,54c0,1.9-1,4.8,2.6,4.8c9.4,0.1,18.9,0,28.6,0
		c0-80.4,0-160.2,0-240.1c-10.5,0-20.5,0-31.7,0c0,35.3,0,70.4,0,105.8c-10.6-0.7-20.2,1.2-30.1-1.3c0-35.1,0-69.7,0-104.6
		C225.5,107,215.5,107,204.1,107z M607.9,347c2-15.9,3.9-31.3,5.8-46.5c9.8,0,18.2,0,27,0c1.5,15.6,3,30.9,4.5,46.7
		c9.8,0,19.2,0,28.7,0c1.3,0,2.6-0.2,4.5-0.4c-10.8-80.1-21.5-160-32.2-240c-10,0-19.3,0.3-28.6-0.1c-4.7-0.2-6.2,1.5-6.8,6
		c-4.9,34.9-10.2,69.8-15,104.7c-5.1,37.4-9.9,74.9-14.8,112.3c-0.7,5.7-1.3,11.3-2,17.3C588.9,347,598.2,347,607.9,347z M401,107.1
		c-25.6,0-50.7,0-76.6,0c0,80.1,0,159.8,0,239.8c25.4,0,50.8,0,76.4,0c0-10.2,0-20,0-30.8c-15,0-29.5,0-43.7,0c0-26.8,0-52.7,0-79.1
		c10.5,0,20.1,0,29.8,0c0-9.6,0-18.7,0-28.3c-10.2,0-20.1,0-30.2,0c0-24.4,0-48.3,0-72.8c15,0,29.6,0,44.3,0
		C401,126.1,401,116.8,401,107.1z M897.3,347c-0.6-18.5-1-36.4-1.7-54.4c-0.6-16.7-1.8-33.4,2.4-49.7c9-35,18.5-69.8,27.7-104.7
		c2.7-10.2,5-20.6,7.7-31.5c-9.6,0-18.4,0.2-27.2-0.1c-3.8-0.1-4.8,1.5-5.4,4.7c-4.3,23.2-8.8,46.4-13.3,69.6
		c-1.5,7.7-3.3,15.3-5,23c-1.1-0.7-1.2-1.3-1.4-2c-5.6-28.2-11.2-56.5-16.8-84.7c-2.1-10.5-2-10.5-13-10.5c-7.1,0-14.1,0-21.5,0
		c0.8,3.3,1.4,5.7,2,8.1c8,32.8,15.4,65.8,24.3,98.3c6.5,24.1,9.6,48.2,8.5,73.1c-0.7,15.3-1.2,30.6-1.5,45.9
		c-0.1,4.9,0.5,9.8,0.8,14.8C874.9,347,885.2,347,897.3,347z M152.1,347.2c0.9-70.3-1.2-139.9,1.3-209.9c8.4,0,16.1,0.1,23.7-0.1
		c1.4,0,4-1.4,4-2.2c0.3-9.3,0.2-18.5,0.2-27.8c-1.3-0.2-1.9-0.4-2.6-0.4c-27.8,0-55.7,0-83.5-0.1c-3.6,0-4.3,1.9-4.3,4.6
		c-0.1,7.3,0.1,14.7-0.1,22c-0.1,3.1,1,4.2,4,4.1c6.3-0.2,12.7-0.2,19-0.1c6.8,0.1,7,0.4,7,7c0,65.2,0,130.3,0,195.5
		c0,1.7-0.3,3.4,0.2,5c0.3,1,1.5,2.3,2.4,2.4C132.7,347.3,142.2,347.2,152.1,347.2z M830.9,347c0-10.3,0-20,0-30.2
		c-14.3,0-28.2,0-42.7,0c0-70.2,0-139.9,0-209.6c-10.7,0-20.8,0-32,0c0,6.2,0,12.2,0,18.1c-0.1,72.5-0.2,144.9-0.5,217.4
		c0,3.9,1.3,4.7,4.9,4.7c22-0.1,44-0.1,66-0.1C827.9,347.2,829.2,347.1,830.9,347z M698.7,347.2c9.3,0,17.6-0.3,25.9,0.1
		c4.7,0.2,5.8-1.4,5.8-5.9c-0.1-76.5-0.1-152.9-0.1-229.4c0-1.6-0.2-3.2-0.3-5.3c-8.5,0-16.6,0-24.7,0c-6.5,0-6.5,0-6.5,6.5
		c0,76,0,151.9,0,227.9C698.7,342.9,698.7,344.7,698.7,347.2z"/>
	<path class="st0" d="M168.5,683.3c5.5,0,10.6-0.1,15.8,0c3.4,0.1,6.2,1.6,6.7,5.4c1.4,10.2,3.9,20.4,4,30.6c0.4,35,0.1,70-0.4,105
		c-0.1,6.9-2.3,13.7-3.5,20.6c-0.7,3.9-3.2,5.7-6.9,5.8c-5.1,0.1-10.3,0-15.7,0C168.5,794.9,168.5,739.5,168.5,683.3z"/>
	<path class="st0" d="M168.6,463.3c5.6,0,10.7-0.1,15.8,0c3.8,0.1,6.4,2,6.9,5.9c1.4,10.8,3.6,21.7,3.9,32.6
		c0.5,28.1,0.5,56.3,0,84.4c-0.2,10.6-2.2,21.1-3.6,31.6c-0.6,4.9-4,6.9-8.8,6.9c-4.6-0.1-9.3,0-14.2,0
		C168.6,570.9,168.6,517.5,168.6,463.3z"/>
	<path class="st0" d="M519,753.4c-8.7,0-16.5,0-25.2,0c4.7-69.3,9.3-138.3,14-207.3c0.5,0,0.9,0,1.4,0
		C512.5,615,515.7,683.9,519,753.4z"/>
	<path class="st0" d="M504.3,227.2c0-27.7,0-55.3,0-83c0-6.8,0-6.9,6.6-6.9c4,0,8,0.1,12,0.3c3.6,0.2,6,2.1,6.4,5.7
		c1.3,10.4,3.6,20.7,3.7,31.1c0.3,39.8-0.1,79.7-0.3,119.5c0,3.3-0.5,6.7-1.3,9.9c-3.2,13.7-12.7,15.5-24.6,13.2
		c-1.1-0.2-2.4-3.2-2.4-4.9C504.2,283.8,504.3,255.5,504.3,227.2z"/>
	<path class="st0" d="M637.2,270.4c-7.3,0-13.4,0-20,0c3.5-30.9,6.9-61.4,10.3-91.9c0.5,0,1-0.1,1.5-0.1
		C631.7,208.9,634.4,239.5,637.2,270.4z"/>
</g>
</svg>
