<?xml version="1.0" encoding="utf-8"?>
<!-- Generator: Adobe Illustrator 20.1.0, SVG Export Plug-In . SVG Version: 6.00 Build 0)  -->
<svg version="1.1" id="Layer_1" xmlns="http://www.w3.org/2000/svg" xmlns:xlink="http://www.w3.org/1999/xlink" x="0px" y="0px"
	 viewBox="0 0 999.1 171" style="enable-background:new 0 0 999.1 171;" xml:space="preserve">
<style type="text/css">
	.st0{fill:#727272;}
</style>
<g>
	<path class="st0" d="M43.4,58.8c0,1,0,2,0,3c0,33.9,0,67.8,0,101.7c0,0.7,0,1.5,0,2.2c0.1,1.6-0.5,2.2-2.2,2.2c-13,0-26,0-39,0
		c-1.6,0-2.4-0.5-2.2-2.1c0.1-0.6,0-1.2,0-1.7C0,110.7,0,57.3,0,3.9c0-4.1-0.3-3.8,3.7-3.8c17.8,0,35.7,0,53.5-0.1
		c2.2,0,3.2,0.7,4,2.7c10.9,28.9,21.9,57.8,32.9,86.7c0.3,0.8,0.6,1.5,1.2,2.9c0.6-1.3,1.1-2.2,1.4-3c7.2-18.9,14.3-37.9,21.5-56.8
		c3.8-10.1,7.7-20.3,11.4-30.4c0.5-1.5,1.3-2.1,2.9-2.1c18.5,0,37,0,55.5,0c1.9,0,2.6,0.6,2.4,2.5c-0.1,0.7,0,1.3,0,2
		c0,53,0,106,0,159c0,0.7,0,1.3,0,2c-0.1,2.4-0.1,2.5-2.6,2.5c-12.6,0-25.2,0-37.7,0c-2.7,0-2.7-0.1-2.7-2.9c0-9.4,0-18.8,0-28.2
		c0-25.2,0-50.3,0-75.5c0-1,0-2,0-3c-0.2-0.1-0.3-0.1-0.5-0.2c-0.3,0.7-0.7,1.3-1,2c-13.3,35-26.7,70.1-40,105.1
		c-0.8,2.1-1.8,2.8-4,2.7c-4.4-0.2-8.8-0.2-13.2,0c-2.2,0.1-3.2-0.8-4-2.8C78,147.1,71,129,64,110.9c-6.4-16.8-12.9-33.6-19.3-50.4
		c-0.2-0.6-0.5-1.2-0.8-1.7C43.8,58.7,43.6,58.8,43.4,58.8z"/>
	<path class="st0" d="M732.9,154.8c0,3.5,0,6.7,0,10c0,3.2,0,3.2-3.1,3.2c-10.9,0-21.8,0-32.7,0c-2.9,0-3,0-3-2.9
		c0-54.1,0-108.1,0-162.2c0-2.8,0-2.9,3-2.9c11,0,22,0,33,0c2.8,0,2.9,0,2.9,3c0,17.8,0,35.7,0,53.5c0,1,0,2,0,2.9
		c0.2,0.1,0.4,0.2,0.6,0.3c0.7-0.7,1.5-1.4,2.2-2.2c7.7-8.2,17.2-13,28.3-13.9c19.2-1.5,34.9,5.1,46.5,20.9
		c6.9,9.5,10.1,20.4,11.5,31.8c1.6,13.3,0.6,26.5-4,39.2c-6.9,18.7-19.6,31.1-39.8,34.6c-16.1,2.8-30.2-1.4-42-12.9
		c-0.7-0.7-1.4-1.4-2.2-2.1C733.8,155.1,733.6,155.1,732.9,154.8z M756.1,136.7c1.3-0.1,2.4-0.1,3.5-0.2c6.3-0.8,11.9-3.3,16.1-8.2
		c7.3-8.6,8.6-18.7,6.4-29.4c-1.4-6.8-4.7-12.5-10.4-16.5c-12.3-8.7-28.2-4.9-37.4,4.5c-0.9,0.9-1.4,2.5-1.4,3.8
		c-0.1,11.1,0,22.2-0.1,33.2c0,1.9,0.7,3.4,2.1,4.6C741.1,133.8,748.2,136.7,756.1,136.7z"/>
	<path class="st0" d="M475,60.5c0.4-0.3,0.8-0.6,1.1-1c8.3-8.6,18.6-13.4,30.2-15.3c10.1-1.6,20.1-1.3,29.7,2.6
		c11.4,4.6,17.8,13.4,19.8,25.3c0.6,3.7,0.9,7.4,0.9,11.2c0.1,26.8,0,53.7,0,80.5c0,0.7,0,1.5,0,2.2c0.1,1.4-0.5,1.9-1.9,1.9
		c-11.7,0-23.3,0-35,0c-1.4,0-2-0.6-1.9-1.9c0-0.7,0-1.5,0-2.2c0-22.6,0-45.2,0-67.7c0-5.1-1.1-9.9-4.9-13.7
		c-3.5-3.5-8-4.3-12.6-4.7c-9.5-0.8-17.4,2.8-24.1,9.4c-1.4,1.4-2,3-2,5.1c0.1,23.9,0,47.8,0,71.7c0,0.7,0,1.5,0,2.2
		c0.1,1.4-0.6,1.9-2,1.9c-11.7,0-23.3,0-35,0c-1.4,0-1.9-0.7-1.9-2c0-0.7,0-1.3,0-2c0-53.3,0-106.6,0-160c0-4.5-0.1-4,4.1-4
		c10.4,0,20.8,0,31.2,0c3.5,0,3.5,0,3.5,3.6c0,17.9,0,35.8,0,53.7c0,1,0,2,0,3C474.6,60.4,474.8,60.5,475,60.5z"/>
	<path class="st0" d="M276.4,105.3c0.8-7.6,1.9-15.2-3.3-21.6c-3.8-4.7-9.2-6.5-14.9-7.2c-13.8-1.8-26,2.2-37.1,10.2
		c-0.9,0.7-1.8,1.4-3,2.2c-1.1-1.9-2.1-3.7-3-5.4c-3.3-6.2-6.7-12.5-10-18.8c-1.4-2.6-1.4-2.7,1-4.5c10-7.7,21.4-12.5,33.7-14.9
		c13.9-2.7,27.8-2.7,41.6,0.7c7,1.7,13.5,4.7,19.1,9.4c7.7,6.4,12,14.8,13.7,24.5c0.7,3.8,1,7.6,1,11.4c0.1,24.4,0,48.8,0,73.2
		c0,3.3,0,3.3-3.2,3.3c-10.7,0-21.5,0-32.2,0c-3,0-3,0-3.1-3.1c0-2.7,0-5.5,0-8.5c-0.6,0.3-0.9,0.4-1.1,0.6
		c-6.9,7.1-15.5,10.9-25,12.8c-10.2,2.1-20.2,1.7-29.9-2.7c-13.9-6.3-22-16.8-23.6-32.2c-0.8-8.1,0.5-15.8,4-23.1
		c3.3-6.7,8.7-11.4,15.2-15c15.2-8.2,40.9-6,54.2,3.8C272.8,102,274.5,103.7,276.4,105.3z M276.9,131.3c0.8-4.1-0.5-7.2-4.2-9.3
		c-9.6-5.4-19.5-6.4-29.7-1.9c-2.2,1-4.3,3-5.6,5.1c-4.2,6.8-1.1,15.3,6.6,18.3c9.3,3.6,18.5,2.7,27.3-1.9c3.7-2,6.5-4.7,5.6-9.5
		C276.9,131.8,276.9,131.5,276.9,131.3z"/>
	<path class="st0" d="M642,156.2c-0.8,0.7-1.2,0.9-1.6,1.3c-8.2,8.2-18.5,11.8-29.8,13.1c-9,1.1-17.7-0.1-25.8-4.1
		c-14.2-7-21.8-18.3-22.4-34.2c-0.2-5.5,0.4-10.8,2.3-16c4.4-12.3,13.4-19.5,25.7-22.7c13.8-3.6,27.3-2.3,40.2,3.8
		c3.3,1.6,6.2,4.2,9.3,6.3c0.6,0.4,1.1,0.9,1.9,1.6c0.1-0.9,0.3-1.4,0.3-2c0-3.2,0.1-6.5,0-9.7c-0.2-6.5-3.3-11.3-9.1-14.2
		c-7.6-3.9-15.7-4.1-23.9-2.7c-8.6,1.5-16.3,5.2-23.3,10.3c-0.7,0.5-1.5,1.1-2.4,1.8c-0.7-1.2-1.4-2.3-1.9-3.4
		c-3.8-7.1-7.5-14.3-11.4-21.4c-0.9-1.7-0.4-2.5,0.9-3.5c10.3-7.9,21.9-13,34.6-15.4c14.9-2.8,29.7-2.8,44.2,1.7
		c17.7,5.4,27.9,17.4,30.4,35.8c0.4,2.9,0.5,5.8,0.5,8.7c0,24.3,0,48.7,0,73c0,3.5,0,3.5-3.4,3.5c-10.7,0-21.5,0-32.2,0
		c-2.9,0-2.9,0-2.9-3C642,162.2,642,159.4,642,156.2z M642,131.4c1.4-5.4-1.8-8.3-6-10.5c-7.3-3.7-15.1-4.4-23.1-2.7
		c-4.3,0.9-8,3-10.3,6.8c-3.1,5.2-2.7,14,5.5,17.8c10.2,4.7,20.3,3.5,29.8-2.2c2.8-1.7,4.9-4.1,4.1-7.8
		C641.9,132.4,642,131.9,642,131.4z"/>
	<path class="st0" d="M912.5,119.9c1,4.3,2.9,7.5,5.4,10.3c5.1,5.7,11.7,8.4,19.1,9.3c11.4,1.3,22-1.5,31.9-7.1
		c0.6-0.4,1.2-0.8,1.9-1.2c0.5-0.4,1.1-0.7,2-1.3c5.5,8.3,11,16.5,16.6,24.9c-0.8,0.7-1.4,1.3-2.1,1.9c-8.1,6.2-17.4,9.8-27.2,11.9
		c-13.7,2.9-27.4,3.6-41.1-0.1c-24.8-6.7-40.4-22.6-45.3-48c-3.4-17.9-0.6-34.9,9.8-50.1c10.6-15.4,25.6-24,44-26.4
		c9.9-1.3,19.6-0.7,29.1,2.3c17.9,5.7,30,17.8,37,35c4.7,11.7,5.8,24,5.3,36.6c-0.1,1.6-0.7,2.1-2.1,2c-0.7,0-1.5,0-2.2,0
		c-26.1,0-52.1,0-78.2,0C915.2,119.9,914.1,119.9,912.5,119.9z M962,93.4c-0.3-1.5-0.5-2.6-0.8-3.7c-2.5-7.7-7.9-12.2-15.5-14.1
		c-5-1.2-10.1-1.4-15.1-0.5c-8.6,1.5-14.8,6.1-17.8,14.6c-0.4,1.1-0.5,2.3-0.8,3.7C928.8,93.4,945.1,93.4,962,93.4z"/>
	<path class="st0" d="M411.3,86.1c-4.3-2.5-8.1-5.1-12.2-7.1c-9.1-4.4-18.7-6.4-28.8-5.1c-3.1,0.4-6,1.4-8.3,3.7
		c-2.9,3.1-2.6,6.3,1.3,8c3.1,1.4,6.5,2.1,9.8,2.8c10.1,2,20.4,3.3,30.2,6.7c8.1,2.8,15.3,6.9,20.7,13.8c4.1,5.3,5.9,11.4,6.5,17.8
		c0.5,4.8,0.2,9.6-1.2,14.4c-2.8,9.5-8.9,16.2-17.2,21.2c-8.4,5-17.7,7.2-27.3,8.1c-13.4,1.3-26.5-0.2-39.3-4.1
		c-9.2-2.8-17.8-6.7-25.3-12.8c-1-0.8-1.9-1.5-0.9-3.1c5-8.4,9.9-16.8,14.8-25.2c0.1-0.1,0.2-0.2,0.5-0.4c0.2,0.1,0.6,0.1,0.8,0.3
		c10.5,8.1,22.4,13,35.5,15.1c5.5,0.9,11.1,0.9,16.6-0.8c1.4-0.4,2.8-1.2,3.9-2.1c3.5-2.9,3.1-7.7-0.9-9.7c-2.7-1.3-5.6-2.1-8.5-2.7
		c-9.2-1.9-18.5-3.5-27.7-5.6c-6.1-1.4-11.9-3.8-17.1-7.4c-8.9-6.1-13.2-14.7-14-25.3c-1.5-19.2,10.5-32.7,26-38.8
		c11.6-4.6,23.6-5.2,35.9-4c13.9,1.4,26.6,5.9,38.2,13.6c2.8,1.9,2.8,1.9,1.1,4.9c-3.9,7.2-7.8,14.4-11.7,21.5
		C412.1,84.7,411.6,85.5,411.3,86.1z"/>
	<path class="st0" d="M828,83.9c0-26.5,0-53,0-79.5c0-0.7,0.1-1.5,0-2.2c-0.1-1.7,0.7-2.1,2.2-2.1c11.5,0,23,0,34.5,0
		c1.5,0,2.2,0.5,2.1,2c0,0.7,0,1.3,0,2c0,53.3,0,106.6,0,160c0,4,0,4-3.9,4c-10.4,0-20.8,0-31.2,0c-3.7,0-3.7,0-3.7-3.6
		C828,137.5,828,110.7,828,83.9z"/>
</g>
</svg>
