<?xml version="1.0" encoding="utf-8"?>
<!-- Generator: Adobe Illustrator 20.1.0, SVG Export Plug-In . SVG Version: 6.00 Build 0)  -->
<svg version="1.1" id="Layer_1" xmlns="http://www.w3.org/2000/svg" xmlns:xlink="http://www.w3.org/1999/xlink" x="0px" y="0px"
	 viewBox="0 0 1972.5 598.6" style="enable-background:new 0 0 1972.5 598.6;" xml:space="preserve">
<style type="text/css">
	.st0{fill:#727272;}
</style>
<path class="st0" d="M1506.7,585.5c0,4.5,0,8.7,0,14.2c-34.3-0.9-68.4-2.5-102.5-2.7c-34.1-0.1-68.2,1.3-102.6,2c0-4.9,0-9.1,0-13.6
	c18.1-1.4,36.1-2.8,54.9-4.2c-1-9.9-1.8-19.1-3-28.4c-11.5-89.5-30.4-177.8-47.3-266.4c-5.2-27.3-10.8-54.5-16.2-81.8
	c-0.2-1.1-0.7-2.1-1.2-3.9c-0.9,1.8-1.6,2.9-2.1,4.1c-52.5,124.1-104.9,248.3-157.4,372.4c-2.7,6.3-5.2,12.6-7.7,19
	c-1,2.5-2.2,3.6-5.1,3.5c-7.3-0.2-14.7-0.4-22-0.1c-3.6,0.2-4.8-1.6-6-4.5c-18.5-44.2-37-88.4-55.6-132.6
	c-36-85.9-72.1-171.8-108.1-257.8c-0.7-1.7-1.5-3.3-2.8-6.2c-26.2,127.5-51,254-70.5,382.8c17.3,1.3,34.4,2.7,51.8,4
	c0,4,0,8.3,0,12.3c-50.3,0-100.5,0-150.9,0c0-3.8,0-8.1,0-12.9c7.9-0.6,15.7-1.2,23.4-1.9c8-0.7,15.9-1.6,23.9-2.2
	c2.9-0.2,3.8-1.5,4.4-4.3c5.8-31.1,11.8-62.1,17.7-93.2c8.9-46.8,17.9-93.5,26.5-140.3c10-54.2,19.8-108.4,29.6-162.6
	c5.2-28.8,10.6-57.6,15.2-86.5c3.8-24.2,6.6-48.5,9.8-72.8c1-7.4,1.9-14.8,2.9-22.8c11.1,0,21.7-0.2,32.3,0.2c1.3,0,3.2,2.5,3.8,4.2
	c10.6,29.8,21.2,59.5,31.3,89.5c20.5,60.8,47,119.1,71.4,178.3c26.8,64.9,54.1,129.6,81.2,194.4c0.6,1.5,1.4,3,2.5,5.4
	c1.1-2.3,2-4,2.7-5.7c68-150.7,128.6-304.3,181.5-460.9c1.4-4,3.2-5.4,7.3-5.2c7.8,0.3,15.7,0.3,23.5,0c3.7-0.1,4.9,1.3,5.3,4.7
	c4.9,35.1,9.5,70.3,15,105.3c6,37.8,12.5,75.5,19.4,113.2c13.2,71.3,26.8,142.6,40.6,213.8c9.1,47.2,18.7,94.3,27.9,141.5
	c0.6,2.8,1.6,3.8,4.5,4C1473,582.5,1489.5,584,1506.7,585.5z"/>
<path class="st0" d="M1580.8,18.7c-12.2-1.3-23.4-2.6-34.7-3.7c-6.1-0.6-12.3-0.9-18.4-1.2c-3.1-0.1-4.6-1.1-4.4-4.4c0.2-3,0-6,0-10
	c147.4,5,294.6-1.4,442.5,0.2c0,38.7,0,77.5,0,116.8c-2,0-4.4,0-7.4,0c-0.7-9.3-1.5-18.9-2.3-28.5c-1.1-13.3-2.2-26.6-3.1-39.9
	c-0.3-3.8-2-4.6-5.4-4.7c-26.1-0.5-52.3-1.6-78.4-1.8c-52.7-0.4-105.3-0.3-158-0.3c-13.3,0-26.7,0.4-40,0.6c-1.3,0-2.6,0.2-4.2,0.4
	c0,78.7,0,157.1,0,236.1c1.5,0.1,3.1,0.4,4.7,0.4c55,0.1,110,0.5,165,0.2c22-0.1,43.9-1.6,65.9-2.3c4.3-0.1,6-1.8,6.6-6
	c2-14,4.4-27.9,6.6-41.9c0.1-0.8,0.3-1.6,0.5-2.6c2.8,0,5.4,0,8.4,0c0,48.1,0,96.2,0,144.6c-3.1,0-6,0-9.5,0c-1-7.7-2-15.6-3.1-23.4
	c-1.1-8.2-2.6-16.4-3.5-24.7c-0.4-4.4-2.5-5.4-6.4-5.4c-17.5-0.2-35-1-52.5-1c-46.8,0.1-93.6,0.4-140.5,0.8
	c-12.7,0.1-25.3,0.7-38,1.1c-1.5,0-2.9,0.3-4.3,0.4c0,80.7,0,160.9,0,241.6c2.3,0.1,4.1,0.3,5.9,0.3c78.6,0.5,157.3,1.1,235.9,1.6
	c14,0.1,28-0.8,42-0.8c4.9,0,6.7-1.5,7-6.3c1.9-24.1,4-48.1,6.1-72.2c0.1-0.8,0.2-1.6,0.4-2.6c2.6,0,5,0,7.6,0
	c0.2,0.9,0.4,1.5,0.4,2.1c-0.5,38-1.2,76-1.6,114c0,4.8-2.6,4.4-5.7,4.4c-56.7-0.5-113.3-1-170-1.6c-54.2-0.6-108.3-1.8-162.4-1.9
	c-30.8-0.1-61.6,1.5-92.4,2.3c-5.6,0.1-11.2,0-17.1,0c0-4.9,0-9,0-13.5c9.7-0.6,19.3-1,28.9-1.7c7.6-0.6,15.2-1.5,22.9-2.1
	c3.5-0.2,4.9-1.6,4.9-5.2c0.1-12.2,0.7-24.3,0.7-36.5c0.1-161.8,0.1-323.6,0.2-485.4C1580.8,43.2,1580.8,31.4,1580.8,18.7z"/>
<path class="st0" d="M504.7,116.5c-2.5,0-4.8,0-7.7,0c-1.2-25.3-2.4-50.5-3.7-76.1c-65.6,0-130.7,0-195.9,0c0,180.3,0,360.6,0,541.6
	c19.4,1.2,38.1,2.4,57.2,3.6c0,4.1,0,8.2,0,13.1c-33.2-0.9-66.5-2.6-99.7-2.6c-33.1,0-66.2,1.6-99.6,2.5c0-5.1,0-9.4,0-14.2
	c5.5-0.4,11.1-0.8,16.7-1.1c11.3-0.7,22.6-1.4,33.9-1.9c3-0.1,4.3-1.2,4-4.1c-0.1-1.5,0-3,0-4.5c0-175-0.1-349.9-0.1-524.9
	c0-2.5,0-4.9,0-7.6c-67.2,0-133.6,0-201.1,0c0,23.8,0,47.3,0,71.4c-3.4,0.2-5.8,0.3-8.6,0.5C0,74.2,0,36.9,0,0
	c168.4,0,336.3,0,504.7,0C504.7,38.2,504.7,77.1,504.7,116.5z"/>
<path class="st0" d="M532,599.4c-2.4-14.7-2.3-14.6,10.6-15.4c12.8-0.8,25.6-1.9,38.4-2.9c1.6-0.1,3.2-0.6,5.2-1c0-1.9,0-3.5,0-5.2
	c0.1-183.5,0.2-367,0.2-550.5c0-7.4,0.9-6.9-6.8-7.6c-15.8-1.3-31.5-2.8-47.7-4.2c0-4.2,0-8.5,0-14.2C597.6,2,663.5,1.7,729.7-1.6
	c0,5.4,0,10,0,14.8c-10.3,0.9-20.4,1.8-30.4,2.7c-7.8,0.7-15.6,1.5-23.4,2c-2.8,0.2-3.9,1.3-3.7,4c0.1,0.8,0,1.7,0,2.5
	c-0.1,182.7-0.2,365.3-0.3,548c0,1.5,0.1,3,0,4.5c-0.3,3,0.9,4.1,3.9,4.3c13.3,0.9,26.6,1.9,39.9,2.9c4.6,0.3,9.2,0.6,14.2,0.9
	c0,4.6,0,8.9,0,14.3c-33-1.2-65.9-3.2-98.8-3.2C598.1,596.1,565.2,598.2,532,599.4z"/>
</svg>
