<?xml version="1.0" encoding="utf-8"?>
<!-- Generator: Adobe Illustrator 20.1.0, SVG Export Plug-In . SVG Version: 6.00 Build 0)  -->
<svg version="1.1" id="svg2" xmlns:svg="http://www.w3.org/2000/svg"
	 xmlns="http://www.w3.org/2000/svg" xmlns:xlink="http://www.w3.org/1999/xlink" x="0px" y="0px" viewBox="0 0 1832 794"
	 style="enable-background:new 0 0 1832 794;" xml:space="preserve">
<style type="text/css">
	.st0{fill:#727272;}
</style>
<path id="path1371_1_" class="st0" d="M1829.1,787.9c-83.2,0-167.9,0-250.1,0c-2.3,0-6.5-10.1-7.7-12.2
	c-34.4-62.1-68.8-124.5-103-186.5c-36.6,66-72.2,133.1-108.7,199.2c-81.9,0.2-163.1-0.4-244.3-0.2c9.2-17.2,19-34,28.8-50.9
	c68.3-118,135.6-237.6,204-355.7c-72.7-127-146.5-253-219.6-379.7c-0.2,0-0.7-0.8-0.2-0.7c83.8,0,167.5,0,251.3,0
	c30.9,56.2,61,113.1,91.4,169.7c31.6-56.1,62.1-113.3,93.4-169.7c81,0,161.9,0,242.9,0c0.2,1-0.5,2.1-1,2.9
	c-70.9,124.6-143.5,249.6-214.3,374.4C1670.7,515.1,1750.9,651.6,1829.1,787.9z"/>
<path id="path1373_1_" class="st0" d="M1221.9,306.5c6.4,26,10.1,54.6,10.1,84.7c0,93.9-27.2,163.5-65,220.1
	c-6.4,9.6-12.9,18.8-19.9,27.6c-20.5,26-45.3,49.7-73,69.4c-18.6,13.2-38,25.2-59.5,35.3c-42.8,20.1-94.5,35.8-154.1,35.8
	c-93.2,0-162-28.4-217.7-67.4c-55.7-39.1-99.1-90.8-128.6-156c-19.8-43.7-32.8-94.1-34.3-155.5c-0.7-30.4,3.1-60.4,8.6-86.4
	c14-65.6,41.5-117,76.3-161.3C599.6,108.6,643.7,74,697,47.9c20.9-10.2,44.3-18.9,69.8-25.2s53.7-10.6,84.2-10.6c0.2,0,0.3,0,0.5,0
	c29.8-1.4,61.4,3.4,86.2,8.9c25.8,5.7,49.7,14.4,71,24c66,29.8,115.2,74.4,154.8,130.1C1189.6,211.6,1209.2,255.4,1221.9,306.5z
	 M921.9,567.1c2.4-9.6,1.7-21.9,1.7-34.6c0-96.9,0-191.8,0-289c0-12.4-1.4-22-5-31c-3.3-8.2-8.4-15.7-14.4-21.8
	c-11.7-11.9-29.3-22.6-51.4-20.9c-10.7,0.8-19.6,4.2-27.4,9.1c-14.5,9.2-25.5,23.3-30,42c-2.3,9.5-2.2,21.6-2.2,34.1
	c0,95.6,0,192.5,0,289c0,6.2-0.3,12.2,0.5,17.5c2.1,15.2,8.9,27.4,17.8,36.5c11.5,11.7,29.3,21.5,52.3,19
	C893.5,613.8,915.3,594.1,921.9,567.1z"/>
<path id="path1377_1_" class="st0" d="M490.1,215.8c-88.6,0-177.1,0-265.7,0c-1.1,33-0.2,69.5-0.5,102.7c71.8,0.6,144.7,0.1,217,0.2
	c0,71.8,0,143.5,0,215.3c-72.8,0.2-146.2-0.3-218.6,0.2c0.1,85.4,0.5,169.2,0.5,254.6c0,0.3-0.1,0.4-0.2,0.5
	c-73.8,0-147.7,0-221.5,0c-0.4,0.1-0.4-0.2-0.7-0.2C-0.1,526.9-0.1,263,0.3,0.7c0-0.3,0-0.7,0.2-0.7C158.7,0,316.9,0,475,0
	c0.3,0,0.4,0,0.5,0.2C480.5,72,485.3,143.9,490.1,215.8z"/>
</svg>
