<?xml version="1.0" encoding="utf-8"?>
<!-- Generator: Adobe Illustrator 20.1.0, SVG Export Plug-In . SVG Version: 6.00 Build 0)  -->
<svg version="1.1"
	 id="svg6122" inkscape:version="0.48.5 r10040" sodipodi:docname="A.svg" xmlns:cc="http://creativecommons.org/ns#" xmlns:dc="http://purl.org/dc/elements/1.1/" xmlns:inkscape="http://www.inkscape.org/namespaces/inkscape" xmlns:rdf="http://www.w3.org/1999/02/22-rdf-syntax-ns#" xmlns:sodipodi="http://sodipodi.sourceforge.net/DTD/sodipodi-0.dtd" xmlns:svg="http://www.w3.org/2000/svg"
	 xmlns="http://www.w3.org/2000/svg" xmlns:xlink="http://www.w3.org/1999/xlink" x="0px" y="0px" viewBox="0 0 1000 178.2"
	 style="enable-background:new 0 0 1000 178.2;" xml:space="preserve">
<style type="text/css">
	.st0{fill:#727272;}
</style>
<sodipodi:namedview  bordercolor="#666666" borderopacity="1.0" fit-margin-bottom="0.5" fit-margin-left="0.5" fit-margin-right="0.5" fit-margin-top="0.5" id="base" inkscape:current-layer="g6988" inkscape:cx="1229.5762" inkscape:cy="-347.41407" inkscape:document-units="px" inkscape:pageopacity="0.0" inkscape:pageshadow="2" inkscape:window-height="1039" inkscape:window-maximized="0" inkscape:window-width="1051" inkscape:window-x="862" inkscape:window-y="-21" inkscape:zoom="0.20350036" pagecolor="#ffffff" showgrid="false">
	</sodipodi:namedview>
<g id="g6988">
	<g id="g6998" transform="matrix(1.0319094,0,0,1.0319094,510.30092,55.623142)">
		<path id="path7000" inkscape:connector-curvature="0" class="st0" d="M-175.3,30v-76.3h18.5c23.4,0,29.5,13.6,29.5,36.3
			c0,24.4-3.7,40-29.5,40H-175.3z M-294.9,113.1c-30.7,0-40.2-19.5-40.2-81.2c0-60.9,9.1-80,39-80c30.5,0,39.4,19.5,39.4,79.8
			C-256.7,92.3-265.7,113.1-294.9,113.1 M-296.1,118.3c47.7,0,67.8-36.1,67.8-87.3c0-50.1-19.3-84.5-67.2-84.5
			c-48.7,0-68,35.7-68,86.7C-363.5,83.4-344.2,118.3-296.1,118.3 M-60,117.3h77.7v-4.5l-25.8-1.2V-46.5h28L37,6.1h4.7l-1.6-57.9
			H-82.3l-1.8,57.9h4.9L-62-46.5h28.2v158.1l-26.2,1.2C-60,112.8-60,117.3-60,117.3z M317.8,117.9h4.3v-163l23.8-2.2v-4.5h-54.6v4.5
			l23.8,2.2V64.3L244.1-51.8H199v4.5l17.7,2.2l3,4.7v150.8l-25,2.4v4.5h55.8v-4.5l-23.8-2.4V-28.9L317.8,117.9L317.8,117.9z
			 M-494,117.3h77.7v-4.5l-26.8-1V30h27.2l3.6,35.1h4.7V-8.3h-4.7l-3.6,33.3h-27.2v-71.2h45.5l17.1,52.4h4.7l-1.4-57.9H-494v4.5
			l24.8,1v158.1l-24.8,1C-494,112.8-494,117.3-494,117.3z M350.4,117.3h119l4.7-63.1h-4.5l-20.5,57.6l-47.3,0.2V30H429l3,35.1h4.7
			V-8.3h-4.7l-3,33.3h-27.2v-71.2h47.3l15.8,51.6h4.7l-1.2-57.1H350.4v4.5l25,1v158.1l-25,1V117.3L350.4,117.3z M122.5,118.3
			c41.8,0,49.1-19.1,49.1-39.2V-45.1l21.9-2.2v-4.5h-49.7v4.5l20.3,2.2V79.1c0,21.1-10.3,29.6-32.7,29.6c-31.5,0-37.4-10.6-37.4-31
			v-124l25.8-1v-4.5H45.1v4.5l22.3,1v121C67.5,104.9,84.1,118.3,122.5,118.3 M-225.7,117.3h74.3v-4.5l-23.9-1V35.1h14.8
			c18.9,0,24.6,3.1,28,25.8l8.6,56.4h45.7v-4.5l-21.1-1l-8.5-53.6c-3.1-19.5-14.2-24.1-32.9-26c23.5-4.1,38.8-15.8,38.8-42.6
			c0-26.4-8.9-41.4-53-41.4h-70.8v4.5l24.8,1v158.1l-24.6,1V117.3z"/>
	</g>
</g>
</svg>
