<?xml version="1.0" encoding="utf-8"?>
<!-- Generator: Adobe Illustrator 20.1.0, SVG Export Plug-In . SVG Version: 6.00 Build 0)  -->
<svg version="1.1" id="Layer_1" xmlns="http://www.w3.org/2000/svg" xmlns:xlink="http://www.w3.org/1999/xlink" x="0px" y="0px"
	 viewBox="0 0 944.2 366.4" style="enable-background:new 0 0 944.2 366.4;" xml:space="preserve">
<style type="text/css">
	.st0{fill:#727272;}
</style>
<g>
	<path class="st0" d="M0.2,142c10.6,0,21.2,0,31.8,0c0.1,0.4,0.1,0.9,0.2,1.3c-1.3,0.3-2.5,0.8-3.8,0.9c-3.8,0.4-6.4,2.5-6.5,6.3
		c-0.3,8.8-0.4,17.6-0.4,26.5c0,2.8,2.3,3.5,4.6,3.5c14,0,28,0.1,42-0.2c1.5,0,4.3-2.2,4.3-3.5c0.3-8.3,0.4-16.7-0.2-25
		c-0.4-5.9-1.8-6.7-7.8-7.8c-0.9-0.2-1.8-0.7-2.7-1.1c0.1-0.3,0.2-0.7,0.2-1c10.2,0,20.4,0,30.6,0c0.1,0.4,0.2,0.9,0.2,1.3
		c-1.2,0.3-2.4,0.7-3.7,0.9c-3.5,0.6-5.8,2.4-6.2,6.1c-0.2,2-0.5,4-0.5,5.9c0,18.7,0,37.3,0,56c0,1.7,0.1,3.3,0.3,5
		c0.4,4.2,2.6,6.7,6.9,7.2c1.3,0.2,2.5,0.5,3.8,0.8c-0.1,0.5-0.1,0.9-0.2,1.4c-10.4,0-20.8,0-31.2,0c-0.1-0.3-0.3-0.5-0.4-0.8
		c0.9-0.4,1.8-1.1,2.8-1.3c6.4-1.6,7.8-2.7,8.1-8.9c0.4-8.8,0.2-17.7,0.1-26.5c0-2.9-1.6-4.1-4.4-4.1c-14.2,0-28.3,0-42.5,0
		c-3.3,0-4.4,1.7-4.3,4.7c0,8-0.1,16,0,24c0.1,8,1.7,9.6,9.8,10.9c0.6,0.1,1.3,0.4,1.8,0.7c0.2,0.1,0.1,0.6,0.3,1.4
		c-10.5,0-20.9,0-31.3,0c-0.1-0.4-0.3-0.7-0.4-1.1c1.3-0.5,2.5-1.2,3.9-1.5c3.2-0.9,5.3-2.7,5.5-6.2c0.2-2,0.6-4,0.6-5.9
		c0-18.2,0-36.3,0-54.5c0-1.3,0-2.7-0.2-4c-1-7.6-1.7-8.3-9.4-9.6c-0.7-0.1-1.4-0.6-2.1-1C0.1,142.7,0.2,142.3,0.2,142z"/>
	<path class="st0" d="M430,4.9c10.3,0,20.7,0,31,0c0.1,0.4,0.1,0.8,0.2,1.2c-1.1,0.3-2.2,0.9-3.3,1c-3.9,0.4-6.3,2.7-6.4,6.4
		c-0.3,8.7-0.3,17.3-0.2,26c0,3.8,3.1,3.9,5.8,3.9c10.7,0.1,21.3,0,32,0c2.8,0,5.7,0,8.5,0c3.2-0.1,5-1.7,4.9-5
		c-0.1-7.8,0-15.7-0.6-23.5c-0.4-6-1.6-6.9-7.5-8c-0.9-0.2-1.7-0.6-2.6-0.9c0-0.3,0.1-0.7,0.1-1c10,0,20,0,31.3,0
		c-1.7,1-2.5,1.8-3.3,1.9c-5.9,1.3-7.3,2.8-7.5,8.6c-0.2,4.5-0.1,9-0.1,13.5c0,15.7,0,31.3,0.1,47c0.1,8.9,0.6,9.4,9.5,11.6
		c0.5,0.1,1,0.6,1.3,1.9c-10.4,0-20.7,0-31.1,0c-0.1-0.2-0.3-0.5-0.4-0.7c0.9-0.5,1.8-1.1,2.8-1.3c6.5-1.8,7.4-2.4,7.8-9.1
		c0.5-8.6,0.3-17.3,0.3-26c0-2.6-1.1-4.4-4.2-4.4c-14.3,0-28.6,0-42.9,0c-3.1,0-4.1,1.6-4.1,4.4c0.1,8.8,0,17.7,0.2,26.5
		c0.1,5.5,2.2,7.6,7.7,8.7c1.1,0.2,2.2,0.5,3.3,0.8c-0.1,0.4-0.1,0.8-0.2,1.3c-10.4,0-20.8,0-31.2,0c-0.1-0.3-0.1-0.6-0.2-0.8
		c0.5-0.4,0.9-1,1.4-1c6.8-0.5,8.9-4.6,8.8-10.9c-0.2-20.8-0.2-41.6-0.4-62.4c-0.1-5-2.1-6.6-7-7.4c-1.3-0.2-2.6-0.6-3.9-0.9
		C429.9,5.7,430,5.3,430,4.9z"/>
	<path class="st0" d="M833.4,184.3c0,26-19,44.9-45.2,44.9c-26.6,0-45.5-18.5-45.5-44.5c0.1-26.1,19.7-45.1,46.4-45.1
		C815.8,139.7,833.4,157.5,833.4,184.3z M784.4,142.9c-10,0.2-20.1,5.6-25.1,17.7c-7.7,18.3-5.6,36.2,5.6,52.5
		c7.2,10.4,18,14.1,30.3,12.3c12.1-1.9,20-9.5,23.6-21.1c4.7-14.9,3.5-29.7-3.5-43.6C809.6,149.5,800.4,143.1,784.4,142.9z"/>
	<path class="st0" d="M472.7,320.8c1,25.4-19.1,45.4-44.1,45.4c-27.4,0-46.7-18.1-46.7-43.8c0-26.3,19.8-45.7,46.4-45.7
		C454.8,276.7,472.6,294.4,472.7,320.8z M394.3,316.4c0,11.7,2.1,21.1,7.1,29.9c7.1,12.3,19,18.5,33.2,16.3
		c13.1-2.1,20.8-10.6,24.2-23c4.2-15.2,2.5-30.1-5.4-43.9c-10.6-18.6-36.5-21.3-50.1-5.5C396.3,298.2,394.3,307.8,394.3,316.4z"/>
	<path class="st0" d="M914.4,142.1c10.2,0,19.9,0,29.6,0c0.1,0.4,0.1,0.8,0.2,1.1c-1.3,0.4-2.5,0.8-3.8,1.1
		c-5.3,1.3-6.8,2.6-7.1,8.1c-0.5,12.8-0.8,25.6-0.9,38.4c-0.1,11.7,0.1,23.3,0.2,35c0,1-0.2,1.9-0.5,4.2
		c-21.4-24.5-42.2-48.3-63.7-72.8c-0.5,2.5-1,3.7-1,4.9c0.2,17.1,0.3,34.3,0.9,51.4c0.3,9.4,0.8,9.5,10.3,11.2
		c0.7,0.1,1.3,0.7,1.7,2c-9.4,0-18.9,0-28.3,0c-0.1-0.2-0.3-0.5-0.4-0.7c1.1-0.4,2.1-1.1,3.2-1.3c4.4-0.6,7-2.6,7.1-7.4
		c0.2-8.1,0.7-16.3,0.8-24.4c0.2-11.7,0.1-23.3,0-35c0-9.3-2.3-12-11.5-13.8c-0.7-0.1-1.4-0.6-2-1.9c6.7,0,13.5,0,19.8,0
		c9.3,11,18.6,22.1,28,33c9.5,10.9,19.2,21.5,28.8,32.3c0.4-0.2,0.8-0.3,1.2-0.5c0.2-1.2,0.6-2.4,0.6-3.5c0-14.2,0-28.3-0.1-42.5
		c0-0.8,0-1.7-0.1-2.5c-0.9-11.3-0.9-11.3-11.9-14.6C915.4,143.7,915.2,143.1,914.4,142.1z"/>
	<path class="st0" d="M512,206.6c0-2.8,0-5.6,0-8.4c-0.1-12.7-0.1-25.3-0.2-38c0-1.7-0.1-3.3-0.4-5c-1.4-9.3-1.4-9.3-10.7-11.2
		c-0.7-0.1-1.2-0.8-1.7-2c9.7,0,19.4,0,29.1,0c0.1,0.4,0.2,0.7,0.3,1.1c-1.4,0.4-2.7,1-4.1,1.2c-4.5,0.8-6.6,3.5-6.8,7.9
		c-0.3,5.5-0.9,11-0.9,16.4c0.1,19.5,0.4,39,0.5,58.4c0,0.7-0.7,1.3-1.2,2.4c-10.6-12.2-21-24.1-31.4-36
		c-10.3-11.9-20.7-23.7-31.1-35.6c-0.4,0.1-0.7,0.2-1.1,0.3c-0.3,1.9-0.8,3.7-0.8,5.6c0.2,16.3,0.3,32.6,0.8,48.9
		c0.3,9.9,1.1,10.5,10.7,11.9c0.7,0.1,1.4,0.6,1.9,1.9c-9.7,0-19.3,0-29,0c-0.1-0.3-0.2-0.5-0.3-0.8c1.1-0.4,2.2-1,3.3-1.2
		c4.1-0.5,6.9-2.2,7.1-6.8c0.2-4.8,0.7-9.6,0.8-14.4c0.1-15.2,0-30.3,0-45.5c0-9.4-1.9-11.7-11.3-13.8c-0.7-0.2-1.2-0.7-1.8-1.1
		c0-0.4,0.1-0.9,0.1-1.3c3.3,0,6.7,0.4,10-0.1c7.1-1,11.2,1.9,15.8,7.6c15.7,19.2,32.5,37.5,48.9,56.1c0.6,0.7,1.5,1.2,2.2,1.7
		C511.2,206.9,511.6,206.8,512,206.6z"/>
	<path class="st0" d="M622,161.5c-0.6-0.8-1.5-1.5-1.9-2.4c-4.9-14.2-16.7-17-27.7-16.3c-23,1.5-35.4,15.5-35.3,38.6
		c0.1,13.1,3,25.1,12.9,34.5c10.2,9.7,22.5,11.4,35.8,8.9c4.2-0.8,6.5-3.5,6.7-7.5c0.3-4.8,0.2-9.7-0.1-14.5
		c-0.2-4.1-2.6-6.2-6.7-6.6c-2.7-0.3-5.3-0.9-7.9-1.3c0.1-0.5,0.1-0.9,0.2-1.4c10.8,0,21.5,0,32.4,0c-0.1,0.7-0.1,1.2-0.2,1.3
		c-6.7,1.4-8,6.1-7.7,12c0.3,5.9-1.1,12,3,17.6c-18.1,5.2-35.8,7.6-53.6,0.6c-18.2-7.2-28.1-23.3-27-43.4
		c1.1-18.9,14.6-34.8,34-39.6c12.5-3.1,25.1-2.7,37.6,0.2c1.4,0.3,2.9,0.7,5,1.1c0.7,5.8,1.4,11.8,2.1,17.8
		C623,161.1,622.5,161.3,622,161.5z"/>
	<path class="st0" d="M176.6,142c9.5,0,18.9,0,28.4,0c0.1,0.4,0.1,0.7,0.2,1.1c-1.3,0.4-2.5,0.8-3.9,1.1c-5,1-6.8,2.4-7,7.5
		c-0.5,12.6-0.6,25.3-1,37.9c-0.2,4.8-0.4,9.7-1.4,14.4c-3.1,15.4-12.4,23.9-28.2,25c-6.3,0.5-13-0.3-19.2-1.9
		c-11.8-3.2-18.5-13.9-18.8-28.7c-0.2-14-0.2-28-0.3-42c0-1.8-0.3-3.6-0.5-5.5c-0.4-4.4-2.8-6.5-7.1-6.8c-1.3-0.1-2.6-0.6-4-1
		c0.1-0.4,0.1-0.7,0.2-1.1c10.7,0,21.5,0,32.2,0c0.1,0.4,0.1,0.8,0.2,1.1c-1.4,0.3-2.8,0.8-4.3,1c-3.7,0.3-5.8,2.2-6.3,5.9
		c-0.1,0.7-0.5,1.3-0.4,1.9c0.3,16.8,0,33.6,1.2,50.3c0.7,9.5,5.8,17.5,15.9,20.4c9.6,2.8,18.8,2.4,26.7-4.8c6.7-6.1,9-14.5,9.2-23
		c0.4-13.4-0.1-26.9-0.7-40.4c-0.4-8.4-1.1-8.7-9.4-10.6c-0.7-0.2-1.4-0.7-2.1-1.1C176.4,142.5,176.5,142.2,176.6,142z"/>
	<path class="st0" d="M614.1,72.3c-1.7,5.8-3.4,11.7-5.2,17.7c-22,0-43.4,0-64.8,0c-0.1-0.3-0.3-0.6-0.4-0.9c1-0.5,2-1.2,3.1-1.4
		c8-1.1,9.8-2.8,9.8-10.8c0.1-20,0.1-40,0-59.9c0-6.6-1.4-8-8-9.9c-0.7-0.2-1.2-0.8-1.6-2c18.8,0,37.6,0,57,0
		c0.5,5.2,1,10.5,1.5,15.9c-0.5,0.2-0.9,0.4-1.4,0.6c-0.7-1-1.6-2-1.9-3.1C600,11,595,8,587.6,8.1c-5.5,0.1-11,0.1-16.5,0
		c-3.1-0.1-4.7,1.1-4.7,4.3c0,9,0,18,0,27c0,2.8,1.2,4.4,4.2,4.4c5.2-0.1,10.3,0.1,15.5-0.2c5.3-0.3,6.4-1.7,7.7-6.8
		c0.3-1.4,1.2-2.8,1.8-4.1c0.4,0.2,0.8,0.3,1.2,0.5c0,8.3,0,16.7,0,25c-0.3,0.2-0.6,0.4-0.9,0.6c-0.7-1.1-1.8-2.1-2.1-3.3
		c-1.9-6.4-3.2-7.6-9.7-7.8c-4.3-0.2-8.7-0.1-13-0.1c-3,0-4.7,1.2-4.7,4.5c0.1,7.7-0.2,15.3,0.2,23c0.5,8.7,3.1,11.2,11.7,11.8
		c5.5,0.3,11,0.2,16.5,0c5.3-0.2,9.6-2.5,12.4-7.2c1.6-2.6,3.3-5.2,4.9-7.8C612.7,71.8,613.4,72,614.1,72.3z"/>
	<path class="st0" d="M331.8,325.6c2.1-0.7,4.3-1.3,6.4-2.1c8.6-3.4,13.5-11.3,13.2-20.9c-0.3-10.1-5.3-17.2-13.8-19.8
		c-0.5-0.1-0.9-0.3-1.4-0.4c-11.7-2.5-13.7-0.8-13.7,10.9c0,18.3,0,36.7,0,55c0,10.9,0.2,11.1,10.6,13.7c0.5,0.1,0.9,0.8,2.2,1.9
		c-11.7,0-22.4,0-33.1,0c-0.1-0.3-0.2-0.6-0.4-0.9c1-0.4,1.9-1,2.9-1.2c5.7-1.2,6.9-2.3,7.7-8.1c0.3-1.8,0.3-3.7,0.3-5.5
		c0-17.8,0-35.7,0-53.5c0-1.5,0-3-0.2-4.5c-0.7-5.8-2-7-7.8-7.8c-1.2-0.2-2.3-0.5-3.4-0.8c0-0.4,0-0.9-0.1-1.3
		c1.3-0.4,2.6-1.2,3.9-1.2c12.5,0.2,25.1-0.7,37.3,1c18,2.5,26.1,22.4,15.8,36.4c-4.2,5.7-10.4,8.2-17,9.6c-3,0.7-6.1,0.8-9.1,1.2
		C332,326.7,331.9,326.1,331.8,325.6z"/>
	<path class="st0" d="M276.7,171.9c0,8.3,0,16.6,0,25c-0.4,0.2-0.8,0.3-1.2,0.5c-0.6-1.2-1.5-2.4-1.9-3.7c-1.9-6.2-3.1-7.2-9.4-7.5
		c-4.8-0.2-9.6-0.2-14.5-0.4c-3.8-0.1-4.8,1.6-4.7,5.2c0.2,8,0,16,0.1,24c0.1,7.4,1.6,8.9,9,9.8c1.1,0.1,2.2,0.5,3.3,0.8
		c-0.1,0.4-0.1,0.8-0.2,1.3c-11.1,0-22.2,0-33.2,0c-0.1-0.3-0.3-0.5-0.4-0.8c0.9-0.4,1.8-1.1,2.8-1.3c6.8-1.3,8.4-2.9,8.4-9.9
		c0.1-20.1,0.1-40.3,0-60.4c0-7.5-0.7-8.2-8-10.3c-0.4-0.1-0.7-0.6-1.1-0.9c2.5-1.7,46.7-2.4,55.3-0.8c0,5.2,0,10.4,0,15.6
		c-0.3,0.1-0.6,0.3-0.9,0.4c-0.5-1-1.1-1.9-1.4-2.9c-2.5-7.5-5.9-10.1-14-10.2c-5.2-0.1-10.3,0.1-15.5-0.1c-3-0.1-4.2,1.1-4.2,4.1
		c0.1,9.5,0.1,19,0,28.5c0,3.4,1.5,4.3,4.6,4.2c5-0.1,10,0,15-0.2c6.4-0.2,7.2-0.9,9-7c0.4-1.2,1.3-2.2,1.9-3.3
		C276,171.5,276.3,171.7,276.7,171.9z"/>
	<path class="st0" d="M353.6,197.3c-0.6-1.5-1.4-3-1.8-4.5c-1.1-4.2-3.4-6.7-8-6.7c-5.2,0-10.3-0.2-15.5-0.3c-3.4-0.1-5.1,1.2-5,5
		c0.3,7.8,0,15.7,0.1,23.5c0.1,7.8,1.9,9.6,9.5,10.4c1.1,0.1,2.3,0.5,3.4,0.8c-0.1,0.4-0.1,0.8-0.2,1.2c-11.3,0-22.6,0-34.9,0
		c1.2-0.9,1.9-1.9,2.6-2c8.8-0.8,9.3-3.4,9.5-11.6c0.3-12.7,0.1-25.3,0.1-38c0-7.3,0.2-14.7-0.2-22c-0.3-6.9-1.3-7.7-8.1-9.1
		c-0.7-0.2-1.4-0.6-2-1.9c18.5,0,37.1,0,56.1,0c0.3,5.2,0.6,10.5,0.9,15.8c-0.5,0.2-1,0.3-1.5,0.5c-0.6-1.3-1.4-2.5-1.8-3.8
		c-2.1-6.1-5.6-9.2-12-9.4c-5.8-0.2-11.7,0-17.5-0.1c-3.1-0.1-4,1.4-4,4.3c0.1,9.3,0.1,18.7,0,28c0,3.2,1.2,4.6,4.4,4.5
		c5.7-0.2,11.3-0.2,17-0.2c4,0,6.1-2,7.1-5.7c0.4-1.6,1.3-3.2,2-4.7c0.4,0.2,0.8,0.4,1.1,0.5c0,8.4,0,16.8,0,25.1
		C354.4,197.1,354,197.2,353.6,197.3z"/>
	<path class="st0" d="M328.4,20.1c1.7-6.7,3.2-13,5-20.1c4.7,6,10.9,4.6,16.7,4.6c15.2,0.1,30.3,0,45.5,0c5.2,0,10.6,1,15.3-4.2
		c-0.8,7.7-1.4,14.2-2.1,20.8c-0.4,0.1-0.8,0.1-1.2,0.2c-0.5-1.1-1.1-2.1-1.4-3.3c-2-7-4.5-9.3-11.8-9.8c-4.5-0.3-9-0.2-13.5-0.2
		c-6.5,0-6.5,0-6.5,6.3c0,16,0,32,0,48c0,5-0.1,10,0.1,15c0.3,7.7,1.7,9.2,9.2,10.3c0.9,0.1,1.8,0.6,2.7,0.9
		c-0.1,0.4-0.1,0.7-0.2,1.1c-11.6,0-23.1,0-34.7,0c-0.1-0.3-0.2-0.7-0.3-1c1.3-0.4,2.6-0.9,3.9-1.1c6.6-0.7,8-1.8,9-8.3
		c0.4-2.6,0.5-5.3,0.6-7.9c0-19,0-38,0-57c0-6.3-0.1-6.4-6.4-6.4c-3.3,0-6.7,0.1-10,0c-7.3-0.2-12.9,2.6-16.1,9.5
		c-0.4,0.9-1,1.7-1.6,2.4C330.4,20.2,329.9,20,328.4,20.1z"/>
	<path class="st0" d="M562.7,293.9c1.6-6.4,3.1-12.7,5.1-20.5c3.5,6.2,8.5,5.3,13.3,5.3c16,0,32,0,48,0c5.4,0,11,1.1,16-3.9
		c-0.8,7.5-1.4,13.9-2.1,20.3c-0.5,0.1-1,0.2-1.4,0.3c-0.5-1.7-1.2-3.3-1.5-5.1c-0.7-3.7-3-6.4-6.4-6.8c-7.4-0.8-14.9-1.1-22.3-1.1
		c-0.9,0-2.4,2.8-2.5,4.4c-0.3,6.5-0.1,13-0.1,19.5c0,13.5,0,27,0,40.5c0,1.8,0,3.7,0.2,5.5c0.8,7.6,1.7,8.5,9.4,9.4
		c0.8,0.1,1.6,0.4,2.4,0.6c0.2,0.1,0.3,0.5,0.9,1.4c-12,0-23.6,0-35.2,0c-0.1-0.2-0.3-0.5-0.4-0.7c1.3-0.4,2.5-1.1,3.8-1.3
		c6.8-0.7,9.1-2.6,9.1-9.4c0.2-22.1,0.1-44.3,0-66.4c0-1.2-1.8-3.5-2.9-3.5c-5.8-0.3-11.7-0.2-17.5,0.2c-5.2,0.4-8.8,3.5-11.3,8
		c-0.7,1.4-1.7,2.6-2.6,3.9C563.8,294.3,563.3,294.1,562.7,293.9z"/>
	<path class="st0" d="M645.6,156.8c1.5-6.3,3.1-12.7,4.8-19.7c5,6.2,11.5,4.5,17.6,4.6c15.3,0.1,30.6,0.1,46,0
		c4.7,0,9.8,1.2,13.3-4.1c0.2,0.3,0.4,0.6,0.6,1c-0.7,6.5-1.3,13-2,19.5c-0.4,0.1-0.8,0.2-1.1,0.3c-0.5-1-1.1-2-1.4-3.1
		c-2.1-7.1-4.5-9.3-11.8-9.9c-5.5-0.4-11-0.1-16.5-0.2c-2.9,0-3.7,1.6-3.7,4.1c0,5.8,0,11.7,0,17.5c0,14,0,28,0,42c0,2,0,4,0.2,6
		c0.5,7.7,1.8,9,9.5,10c0.9,0.1,1.9,0.6,2.8,0.9c-0.1,0.4-0.1,0.7-0.2,1.1c-11.6,0-23.2,0-34.9,0c-0.1-0.2-0.3-0.5-0.4-0.7
		c0.9-0.4,1.8-1.2,2.8-1.3c9.5-0.2,10.3-3.6,10.5-11.6c0.4-13.8,0.1-27.6,0.1-41.5c0-7.2-0.2-14.3,0.1-21.5c0.1-4-1.6-5.3-5.4-5.1
		c-3.7,0.2-7.3,0.1-11,0c-7.3-0.2-12.9,2.6-16.2,9.4c-0.5,1.1-1.4,1.9-2.1,2.9C646.6,157.2,646.1,157,645.6,156.8z"/>
	<path class="st0" d="M540.4,295.2c-0.9-1.9-1.7-3.8-2.6-5.7c-4.6-9.1-16.6-12.5-25.3-7.3c-6,3.6-8.7,11.9-5.1,18.4
		c2.1,3.8,5.4,7.1,8.9,9.8c4.1,3.3,9,5.6,13.4,8.6c8.7,5.9,14.4,13.6,13.9,24.8c-0.6,11.9-8.1,20-21.6,22
		c-7.7,1.1-15.3,0.2-22.5-2.8c-1.4-0.6-3.2-1.8-3.6-3c-1.4-5.3-2.4-10.8-3.5-16.3c0.6-0.2,1.1-0.5,1.7-0.7c0.7,1,1.5,2,2.1,3
		c2.5,3.9,4.5,8.2,7.6,11.5c5.4,5.6,12.6,6.4,19.9,4.6c5.9-1.5,9.5-5.6,10.6-11.4c1.4-7.2-0.7-13.7-6.5-18.3
		c-4.6-3.8-10-6.6-14.7-10.3c-3.9-3-8.1-6-11-9.9c-9.8-12.8-3.8-29.7,11.6-34.2c8.3-2.4,16.5-1,24.6,0.9c0.7,0.2,1.7,0.8,1.9,1.4
		c1.5,4.8,2.8,9.7,1.6,14.7C541.4,295,540.9,295.1,540.4,295.2z"/>
	<path class="st0" d="M414,226.7c-11,0-21.9,0-32.9,0c-0.1-0.2-0.3-0.5-0.4-0.7c1.1-0.4,2.1-1.1,3.2-1.3c6.2-1.1,7.8-2.4,8.2-8.6
		c0.4-6.1,0.3-12.3,0.3-18.5c0-13.3,0-26.7,0-40c0-2.3-0.3-4.6-0.5-7c-0.4-4.2-2.9-6.1-6.9-6.5c-1.4-0.1-2.8-0.5-4.2-0.8
		c0.1-0.5,0.2-0.9,0.2-1.4c10.9,0,21.8,0,32.7,0c0.1,0.4,0.2,0.7,0.3,1.1c-1.2,0.4-2.4,0.9-3.6,1c-5.5,0.7-7.2,2.3-7.9,7.8
		c-0.2,1.3-0.2,2.7-0.2,4c0,19,0,38,0,57c0,1.5,0.1,3,0.2,4.5c0.5,4.2,2.9,6.6,7.1,7.1c1.5,0.2,2.9,0.5,4.4,0.8
		C414.1,225.8,414,226.3,414,226.7z"/>
</g>
</svg>
