<?xml version="1.0" encoding="utf-8"?>
<!-- Generator: Adobe Illustrator 20.1.0, SVG Export Plug-In . SVG Version: 6.00 Build 0)  -->
<svg version="1.1" id="Layer_1" xmlns="http://www.w3.org/2000/svg" xmlns:xlink="http://www.w3.org/1999/xlink" x="0px" y="0px"
	 viewBox="0 0 1650 400" style="enable-background:new 0 0 1650 400;" xml:space="preserve">
<style type="text/css">
	.st0{fill:#727272;}
</style>
<path class="st0" d="M900,0c50,0,100,0,150,0c-0.1,1.3-0.3,2.6-0.3,4c0,80.5,0,160.9,0,241.4c0,1.6,0.2,3.2,0.3,5
	c16.1,0,31.6-0.1,47.1,0c14.6,0.1,26.9-5.1,37.2-15.3c17-16.9,34-33.9,50.9-50.9c10.1-10.1,15.2-22.3,15.1-36.8
	c-0.1-47.3,0-94.6,0-141.9c0-1.8-0.2-3.6-0.3-5.5c50,0,100,0,150,0c-0.1,2.2-0.3,4.3-0.3,6.5c0,53.6,0,107.3,0,160.9
	c0,27.7-6.9,53.6-21,77.5c-0.9,1.5-1.7,3.1-2.9,5.4c2.6,0,4.2,0,5.8,0c21.8,0,43.6-0.1,65.5,0c14.6,0.1,27-5.1,37.2-15.3
	c17-16.9,34-33.9,50.9-50.9c10.1-10.1,15.2-22.3,15.1-36.8c-0.1-47.3,0-94.6,0-141.9c0-1.8-0.2-3.6-0.3-5.5c50,0,100,0,150,0
	c0,59,0,118,0,177c-0.4,1.6-1,3.2-1.1,4.8c-3,34.2-15.8,64.3-39.6,88.9c-29.1,30.2-58.9,59.8-89,89c-20.5,19.9-45.6,32-73.8,37.2
	c-6.5,1.2-13,2.1-19.6,3.1c-50.7,0-101.3,0-152,0c0.1-0.8,0.3-1.6,0.3-2.5c0-29.1,0-58.3,0-87.4c0-1.1-0.2-2.2-0.4-4.1
	c-1.9,1.7-3.2,2.8-4.5,4.1c-15.7,15.6-31.2,31.4-47,46.9c-21.6,21.2-47.4,34.6-77.2,40c-6.3,1.2-12.7,2-19.1,3.1
	c-75.7,0-151.3,0-227,0c0.1-1.8,0.3-3.6,0.3-5.5c0-129.7,0-259.4,0-389.1C900.3,3.6,900.1,1.8,900,0z"/>
<path class="st0" d="M850,400c-50,0-100,0-150,0c0.1-1.5,0.3-3,0.3-4.5c0-48,0-95.9,0-143.9c0-13.5-4.7-25.2-14.1-34.7
	c-17.5-17.8-35.2-35.5-53-53c-9.8-9.6-21.8-14.4-35.6-14.3c-11.5,0.1-23,0-34.5,0c-4.3,0-8.6,0-13.4,0c0,2.6,0,4.5,0,6.5
	c0,79.4,0,158.9,0,238.3c0,1.8,0.2,3.6,0.3,5.5c-50,0-100,0-150,0c0.1-1.8,0.3-3.6,0.3-5.5c0-129.7,0-259.4,0-389.1
	c0-1.8-0.2-3.6-0.3-5.5c75.7,0,151.3,0,227,0c1.4,0.4,2.8,0.9,4.3,1.1c36.3,3.1,67.3,17.5,93.2,43.1c25.9,25.7,51.4,51.8,77.5,77.3
	c32.6,31.8,48,70.2,47.8,115.6c-0.3,52.2-0.1,104.3-0.1,156.5C849.7,395.7,849.9,397.8,850,400z"/>
<path class="st0" d="M250,400c-50,0-100,0-150,0c0.1-1.3,0.3-2.6,0.3-4c0-80.4,0-160.9,0-241.3c0-1.6-0.2-3.2-0.3-5
	c-23.1,0-45.6,0-68.1,0c-10.7,0-21.3,0.2-32,0.3C0,100,0,50,0,0c116.7,0,233.3,0,350,0c-0.1,2-0.3,4-0.3,6c0,45.8,0,91.6,0,137.5
	c0,1.9,0,3.9,0,6.5c-33.6,0-66.7,0-100,0c0,2.2,0,3.7,0,5.1c0,80.1,0,160.3,0,240.4C249.7,397,249.9,398.5,250,400z"/>
</svg>
