<?xml version="1.0" encoding="utf-8"?>
<!-- Generator: Adobe Illustrator 20.1.0, SVG Export Plug-In . SVG Version: 6.00 Build 0)  -->
<svg version="1.1" id="Layer_1" xmlns="http://www.w3.org/2000/svg" xmlns:xlink="http://www.w3.org/1999/xlink" x="0px" y="0px"
	 viewBox="0 0 150 150" style="enable-background:new 0 0 150 150;" xml:space="preserve">
<style type="text/css">
	.st0{fill:#EC0606;}
</style>
<title>119 - Chart Presentation (business, finance, marketing, outline)</title>
<desc>Created with Sketch.</desc>
<g>
	<path class="st0" d="M125,42.3V29H25v13.3h3.3V109h-1.7c-1,0-1.7,0.7-1.7,1.7c0,1,0.7,1.7,1.7,1.7h1.7h45v3.3v0.2
		c-2.8,0.7-5,3.3-5,6.5c0,3.7,3,6.7,6.7,6.7s6.7-3,6.7-6.7c0-3.2-2.2-5.7-5-6.5v-0.2v-3.3h45h1.7c1,0,1.7-0.7,1.7-1.7
		c0-1-0.7-1.7-1.7-1.7h-1.7V42.3H125z M78.3,122.3c0,1.8-1.5,3.3-3.3,3.3s-3.3-1.5-3.3-3.3c0-1.8,1.5-3.3,3.3-3.3
		S78.3,120.5,78.3,122.3z M28.3,32.3h93.3V39H28.3V32.3z M118.3,109H31.7V42.3h86.7V109z"/>
	<path class="st0" d="M116.7,74c0-12.8-10.5-23.3-23.3-23.3h-1.7v25h25V74z M95,72.3V54c9.7,0.8,17.5,8.7,18.3,18.3H95z"/>
	<path class="st0" d="M35,74h12.3l7.8,14.2c0,0.2,0.2,0.3,0.3,0.3l0,0c0.2,0.2,0.3,0.2,0.5,0.3h0.2c0.2,0,0.3,0.2,0.5,0.2l0,0h10.7
		c3.7,7.8,11.7,13.3,21,13.3c12.8,0,23.3-10.5,23.3-23.3v-1.7H90V55.7h-1.7C75.5,55.7,65,66.2,65,79c0,2.3,0.3,4.5,1,6.7h-8.3
		l-7.8-14.2l-0.2-0.2c0-0.2-0.2-0.2-0.2-0.3c0,0-0.2-0.2-0.3-0.2c-0.2,0-0.2-0.2-0.3-0.2c-0.2,0-0.2,0-0.3,0h-0.2H35
		c-1,0-1.7,0.7-1.7,1.7S34,74,35,74z M68.3,79c0-10.5,8-19,18.3-19.8v21.5h21.5C107.3,90.8,98.7,99,88.3,99C81,99,74.5,95,71,89h5.7
		c1,0,1.7-0.7,1.7-1.7c0-1-0.7-1.7-1.7-1.7h-7.2C68.8,83.7,68.3,81.3,68.3,79z"/>
	<path class="st0" d="M38.3,67.3c1,0,1.7-0.7,1.7-1.7V59c0-1-0.7-1.7-1.7-1.7c-1,0-1.7,0.7-1.7,1.7v6.7
		C36.7,66.7,37.3,67.3,38.3,67.3z"/>
	<path class="st0" d="M43.3,67.3c1,0,1.7-0.7,1.7-1.7V59c0-1-0.7-1.7-1.7-1.7c-1,0-1.7,0.7-1.7,1.7v6.7
		C41.7,66.7,42.3,67.3,43.3,67.3z"/>
</g>
</svg>
