<?xml version="1.0" encoding="utf-8"?>
<!-- Generator: Adobe Illustrator 20.1.0, SVG Export Plug-In . SVG Version: 6.00 Build 0)  -->
<svg version="1.1" id="Layer_1" xmlns="http://www.w3.org/2000/svg" xmlns:xlink="http://www.w3.org/1999/xlink" x="0px" y="0px"
	 viewBox="0 0 150 150" style="enable-background:new 0 0 150 150;" xml:space="preserve">
<style type="text/css">
	.st0{fill:#EC0606;}
</style>
<g>
	<path class="st0" d="M93.4,103.9c0-0.4-0.1-0.7-0.3-1.1c-0.1-0.1-0.1-0.1-0.1-0.2L88.1,88c0-0.4-0.1-0.8-0.3-1.1
		c0-0.1-0.1-0.1-0.1-0.1l-4.8-14c0-0.4-0.1-0.9-0.4-1.2l-5.8-17.4v-3.1c2-0.7,3.5-2.6,3.5-4.8c0-2.8-2.3-5.1-5.1-5.1
		c-2.8,0-5.1,2.3-5.1,5.1c0,2.1,1.3,3.9,3,4.6v3.3l-6,18l0,0l-13.5,40.4c-0.3,1,0.2,2,1.1,2.3c0.2,0.1,0.4,0.1,0.6,0.1
		c0.8,0,1.4-0.5,1.7-1.2l2.4-7.1l13.7,8.7v7.9c0,1,0.8,1.8,1.8,1.8c1,0,1.8-0.8,1.8-1.8v-7.9h0.1l13.7-8.8l2.4,7
		c0.2,0.8,1,1.2,1.7,1.2c0.2,0,0.4-0.1,0.6-0.1c1-0.3,1.4-1.3,1.1-2.3L93.4,103.9z M69.6,75.9l3.5,3.2v13.5l-7.3-5.2L69.6,75.9z
		 M76.7,79.2l3.5-3.2L84,87.3l-7.4,5.2L76.7,79.2L76.7,79.2z M79,72.3l-2.3,2.1v-8.9L79,72.3z M75.2,44.8c0.8,0,1.5,0.7,1.5,1.5
		c0,0.8-0.7,1.5-1.5,1.5s-1.5-0.7-1.5-1.5C73.7,45.4,74.3,44.8,75.2,44.8z M73.1,74.2l-2.3-2.1l2.3-6.8V74.2z M60.5,103l4.1-12.2
		l8.5,6.1v14.2L60.5,103z M76.7,111.1V97l8.5-6.1l4.1,12.2L76.7,111.1z"/>
	<path class="st0" d="M80.8,54.6c-0.8,0.5-1,1.7-0.5,2.5c0.5,0.8,1.7,1,2.5,0.5c3.8-2.6,6-6.8,6-11.4c0-7.6-6.1-13.7-13.7-13.7
		s-13.7,6.1-13.7,13.7c0,4.6,2.3,8.8,6.1,11.4c0.3,0.2,0.7,0.3,1,0.3c0.6,0,1.1-0.3,1.5-0.8c0.5-0.8,0.4-1.9-0.5-2.5
		c-2.8-1.9-4.5-5-4.5-8.4c0-5.6,4.5-10.1,10.1-10.1c5.6,0,10.1,4.5,10.1,10.1C85.2,49.6,83.6,52.7,80.8,54.6z"/>
	<path class="st0" d="M64.9,64.9c0.9,0.5,2,0.2,2.4-0.7c0.5-0.9,0.2-2-0.7-2.4c-5.7-3.1-9.2-9-9.2-15.5c0-9.8,8-17.7,17.7-17.7
		s17.7,7.9,17.7,17.7c0,6.8-3.8,12.9-9.9,15.9c-0.9,0.4-1.2,1.5-0.8,2.4c0.3,0.7,1,1,1.6,1c0.2,0,0.5-0.1,0.8-0.2
		c7.4-3.6,11.9-11,11.9-19.1c0-11.7-9.5-21.2-21.2-21.2s-21.2,9.5-21.2,21.2C53.8,54,58.1,61.1,64.9,64.9z"/>
</g>
</svg>
