<?xml version="1.0" encoding="utf-8"?>
<!-- Generator: Adobe Illustrator 20.1.0, SVG Export Plug-In . SVG Version: 6.00 Build 0)  -->
<svg version="1.1" id="Layer_1" xmlns="http://www.w3.org/2000/svg" xmlns:xlink="http://www.w3.org/1999/xlink" x="0px" y="0px"
	 viewBox="0 0 150 150" style="enable-background:new 0 0 150 150;" xml:space="preserve">
<style type="text/css">
	.st0{fill:#FFFFFF;}
	.st1{fill:#F4F4F4;}
	.st2{fill:#EC0606;}
</style>
<g>
	<circle class="st0" cx="74.4" cy="72.6" r="65"/>
	<g>
		<path class="st1" d="M83.8,81.1c-0.8,0-1.6,0.3-2.2,0.8l-7.9,7.8l-6.2-6.3c-0.1-0.2-0.5-0.5-0.8-0.7c-4-1.8-8.5-1.8-12.9-0.2
			c-7.1,3-12.7,9.8-14.6,14.8c-2.8,7.9,2.9,12.9,6.3,14.6c0.3,0.1,0.8,0.3,1.4,0.3h55.3c0.3,0,0.8-0.1,1.1-0.1
			c3.3-1.4,5.3-3.3,6.3-6.2c1.4-3.6,0.5-8.1-2.5-13.7C101,81.5,84.5,81.1,83.8,81.1z M103.9,104.3c-0.2,0.7-0.7,1.6-2.5,2.4H47.5
			c-1.4-0.8-4.1-3-2.8-7s6-9.3,11.3-11.5c2.9-1.1,5.4-1.4,7.6-0.3l7.7,8.1c1.1,1.1,3,1.1,4.1,0.1l9.1-8.7c3.3,0.3,13.2,1.6,16.8,8
			C104.2,100.4,104.2,102.9,103.9,104.3z"/>
		<path class="st1" d="M74.1,80.2c10.9,0,15.3-11.4,15.5-11.7c0.1-0.3,0.1-0.7,0.1-0.9V45.3c0-0.1,0-0.1,0-0.1
			C89.6,40.9,86.4,33,76.3,33c-16.5,0-17.8,9.5-17.8,12.4v21.7c0,0.3,0.1,0.7,0.1,0.9C58.9,68.4,63.2,80.2,74.1,80.2z M84,66.6
			c-0.8,1.6-3.8,7.3-9.8,7.3s-9-6-9.6-7.6V55.2c10-1.1,15.6-7.8,18.2-13.4c0.9,1.5,1.1,3,1.1,3.6L84,66.6L84,66.6L84,66.6z
			 M76.4,38.9c0.3,0,0.7,0,0.9,0c-1.5,3.5-4.9,9.1-12.9,10.2v-3.8C64.6,39.4,72.9,38.9,76.4,38.9z"/>
	</g>
	<circle class="st2" cx="115.7" cy="120.4" r="23.7"/>
	<g>
		<path class="st0" d="M121.7,135.5h-12.4c-1.6,0-2.9-1.4-2.9-2.8v-22c0-1.6,1.4-2.9,2.9-2.9h12.4c1.6,0,2.9,1.4,2.9,2.9v22
			C124.6,134.3,123.3,135.5,121.7,135.5z M109.3,110.3c-0.3,0-0.5,0.1-0.5,0.5v22c0,0.3,0.1,0.4,0.5,0.4h12.4c0.3,0,0.5-0.1,0.5-0.4
			v-22c0-0.3-0.1-0.5-0.5-0.5H109.3z"/>
	</g>
	<g>
		<circle class="st0" cx="115.7" cy="130.5" r="1.6"/>
	</g>
</g>
</svg>
