<?xml version="1.0" encoding="utf-8"?>
<!-- Generator: Adobe Illustrator 20.1.0, SVG Export Plug-In . SVG Version: 6.00 Build 0)  -->
<svg version="1.1" id="Layer_1" xmlns="http://www.w3.org/2000/svg" xmlns:xlink="http://www.w3.org/1999/xlink" x="0px" y="0px"
	 viewBox="0 0 150 150" style="enable-background:new 0 0 150 150;" xml:space="preserve">
<style type="text/css">
	.st0{fill:#EC0606;}
</style>
<path class="st0" d="M115.6,50.5C108,34.2,96,28.2,86.7,26.1c-0.1,0-0.2,0-0.3-0.1c-0.3-0.1-0.5-0.2-0.8-0.2
	C82.1,25.1,79,25,76.7,25c0,0,0,0,0,0c0,0,0,0,0,0c-0.8,0-1.5,0-2.3,0c0,0,0,0,0,0c-0.1,0-0.1,0-0.1,0c-0.8,0-1.6,0-2.4,0
	c0,0-0.1,0-0.1,0c-1.2,0-2.4,0.1-3.6,0.2c0,0-0.1,0-0.1,0c-15.7,1.5-27.6,10.1-34.5,25.2C30.4,57.2,29,65,29,75
	c0,7,3.5,28.4,6.8,33.7c0.1,0.2,0.3,0.3,0.4,0.5l1.3,7.1c0.1,0.8,0.8,1.4,1.6,1.4l6.8,0.4l0.4,2c0.6,3.3,3.8,5.4,7,4.8l2.3-0.4
	c1.6-0.3,2.9-1.2,3.9-2.5c0.9-1.3,1.2-2.9,0.9-4.5l-6.6-34.6c-0.6-3.3-3.8-5.4-7-4.8l-2.3,0.4c-1.6,0.3-2.9,1.2-3.9,2.5
	c-0.9,1.3-1.2,2.9-0.9,4.5l1.3,6.7l-5.8,2.6c-1.5-7.4-2.7-16-2.8-20c0-9.5,1.3-16.8,4.1-23c2.8-6,6.4-10.9,10.8-14.7
	c8.4,1.9,18.1,2.9,28,2.9c9.3,0,18.5-0.9,26.5-2.6c3.9,3.4,7.6,8,10.5,14.4c2.8,6.1,4.2,13.6,4.2,23c0,3.8-2,12.8-4.2,20.4
	c-0.1-0.1-0.3-0.3-0.5-0.4l-6-2.7l1.3-6.7c0.3-1.6,0-3.2-0.9-4.5c-0.9-1.3-2.3-2.2-3.8-2.5l-2.3-0.4c-1.6-0.3-3.2,0-4.5,0.9
	c-1.3,0.9-2.2,2.3-2.5,3.8l-6.6,34.6c-0.6,3.3,1.5,6.4,4.8,7l2.3,0.4c0.4,0.1,0.8,0.1,1.1,0.1c2.8,0,5.4-2,5.9-4.9l0.4-2l6.8-0.4
	c0.8-0.1,1.4-0.6,1.6-1.4l1.3-7.1c0.2-0.1,0.3-0.3,0.4-0.5c3.3-5.3,9-26.7,9-33.7C120.1,65,118.6,57,115.6,50.5z M43.6,83
	c0.4-0.6,1-1,1.6-1.1l2.3-0.4c1.4-0.3,2.8,0.7,3,2.1l6.6,34.6c0.1,0.7,0,1.4-0.4,1.9c-0.4,0.6-1,1-1.6,1.1l-2.3,0.4
	c-1.4,0.3-2.8-0.7-3-2.1l-0.6-3.2c0,0,0-0.1,0-0.1L44.7,93c0,0,0,0,0-0.1l-1.5-8C43,84.3,43.2,83.6,43.6,83z M41.7,95.8l3.6,18.9
	l-4.6-0.3l-3-16.7L41.7,95.8z M97.9,34.8c-7,1.2-14.6,1.8-22.5,1.8c-8.4,0-16.6-0.5-23.9-1.9c5.7-3.9,12.5-5.8,20.3-5.8c0,0,0,0,0,0
	c0.8,0,1.6,0,2.5,0c0,0,0.1,0,0.1,0l0,0c0.8,0,1.5,0,2.3,0c0,0,0,0,0,0c0,0,0,0,0,0c0,0,0,0,0,0c0,0,0,0,0,0c0,0,0,0,0.1,0
	c1.5,0,3.5-0.2,5.8,0.1c0.2,0,0.4-0.1,0.6,0c0.1,0,0.2,0,0.2,0C87.8,29.8,92.9,31.3,97.9,34.8z M97.2,119.5c-0.3,1.4-1.6,2.3-3,2.1
	l-2.3-0.4c-1.4-0.3-2.3-1.6-2.1-3l6.6-34.6c0.1-0.7,0.5-1.3,1.1-1.6c0.6-0.4,1.3-0.5,1.9-0.4l2.3,0.4c0.7,0.1,1.3,0.5,1.6,1.1
	c0.4,0.6,0.5,1.3,0.4,1.9L97.2,119.5z M106.2,114.4l-4.6,0.3l3.6-18.9l4,1.8L106.2,114.4z"/>
</svg>
