<?xml version="1.0" encoding="utf-8"?>
<!-- Generator: Adobe Illustrator 20.1.0, SVG Export Plug-In . SVG Version: 6.00 Build 0)  -->
<svg version="1.1" id="Layer_1" xmlns="http://www.w3.org/2000/svg" xmlns:xlink="http://www.w3.org/1999/xlink" x="0px" y="0px"
	 viewBox="0 0 150 150" style="enable-background:new 0 0 150 150;" xml:space="preserve">
<style type="text/css">
	.st0{fill:#EC0606;}
</style>
<title>120 - Chart Presentation (business, finance, marketing, outline)</title>
<desc>Created with Sketch.</desc>
<g>
	<path class="st0" d="M125.5,43.3V30h-100v13.3h3.3V110h-1.7c-1,0-1.7,0.7-1.7,1.7c0,1,0.7,1.7,1.7,1.7h1.7h45v3.3v0.2
		c-2.8,0.7-5,3.3-5,6.5c0,3.7,3,6.7,6.7,6.7s6.7-3,6.7-6.7c0-3.2-2.2-5.7-5-6.5v-0.2v-3.3h45h1.7c1,0,1.7-0.7,1.7-1.7
		c0-1-0.7-1.7-1.7-1.7h-1.7V43.3H125.5z M78.8,123.3c0,1.8-1.5,3.3-3.3,3.3s-3.3-1.5-3.3-3.3c0-1.8,1.5-3.3,3.3-3.3
		S78.8,121.5,78.8,123.3z M28.8,33.3h93.3V40H28.8V33.3z M118.8,110H32.2V43.3h86.7V110z"/>
	<circle class="st0" cx="60.5" cy="66.7" r="1.7"/>
	<circle class="st0" cx="60.5" cy="73.3" r="1.7"/>
	<circle class="st0" cx="60.5" cy="80" r="1.7"/>
	<circle class="st0" cx="60.5" cy="86.7" r="1.7"/>
	<circle class="st0" cx="60.5" cy="93.3" r="1.7"/>
	<path class="st0" d="M38.8,100h5h10h3.3h6.7h3.3h6.7h3.3h6.7h3.3h6.7h3.3h10h5c1,0,1.7-0.7,1.7-1.7c0-1-0.7-1.7-1.7-1.7h-5V60h-10
		v-5H83.8v11.7h-10v10h-6.7V60H53.8v10h-10v26.7h-5c-1,0-1.7,0.7-1.7,1.7C37.2,99.3,37.8,100,38.8,100z M103.8,63.3v33.3h-6.7V63.3
		H103.8z M87.2,58.3h6.7V60v36.7h-6.7v-30V58.3z M77.2,70h6.7v26.7h-6.7v-20V70z M73.8,80v16.7h-6.7V80H73.8z M62.2,63.3
		c0,1,0.7,1.7,1.7,1.7v3.3c-1,0-1.7,0.7-1.7,1.7s0.7,1.7,1.7,1.7V75c-1,0-1.7,0.7-1.7,1.7s0.7,1.7,1.7,1.7v3.3c-1,0-1.7,0.7-1.7,1.7
		c0,1,0.7,1.7,1.7,1.7v3.3c-1,0-1.7,0.7-1.7,1.7s0.7,1.7,1.7,1.7V95c-1,0-1.7,0.7-1.7,1.7h-3.3c0-1-0.7-1.7-1.7-1.7v-3.3
		c1,0,1.7-0.7,1.7-1.7s-0.7-1.7-1.7-1.7V85c1,0,1.7-0.7,1.7-1.7c0-1-0.7-1.7-1.7-1.7v-3.3c1,0,1.7-0.7,1.7-1.7S58.2,75,57.2,75v-3.3
		c1,0,1.7-0.7,1.7-1.7s-0.7-1.7-1.7-1.7V65c1,0,1.7-0.7,1.7-1.7H62.2z M47.2,73.3h6.7v23.3h-6.7V73.3z"/>
</g>
</svg>
