<?xml version="1.0" encoding="utf-8"?>
<!-- Generator: Adobe Illustrator 20.1.0, SVG Export Plug-In . SVG Version: 6.00 Build 0)  -->
<svg version="1.1" id="Layer_1" xmlns="http://www.w3.org/2000/svg" xmlns:xlink="http://www.w3.org/1999/xlink" x="0px" y="0px"
	 viewBox="0 0 150 150" style="enable-background:new 0 0 150 150;" xml:space="preserve">
<style type="text/css">
	.st0{fill:#EC0606;}
</style>
<title>80 - Receipt (business, finance, marketing, outline)</title>
<desc>Created with Sketch.</desc>
<g>
	<path class="st0" d="M125,33.9c0-3.7-3-6.7-6.7-6.7H31.7c-3.7,0-6.7,3-6.7,6.7c0,3.2,2.2,5.7,5,6.5v80.8l5-5l10,10l10-10l10,10
		l10-10l10,10l10-10l10,10l10-10l5,5V40.4C122.8,39.5,125,37,125,33.9z M116.7,113.2l-1.7-1.7l-10,10l-10-10l-10,10l-10-10l-10,10
		l-10-10l-10,10l-10-10l-1.7,1.7V40.5v-5h83.3v5V113.2z M120,36.7v-4.5H30v4.5c-1-0.5-1.7-1.7-1.7-2.8c0-1.8,1.5-3.3,3.3-3.3h86.7
		c1.8,0,3.3,1.5,3.3,3.3C121.7,35,121,36.2,120,36.7z"/>
	<path class="st0" d="M98.3,93.9h-25c-1,0-1.7,0.7-1.7,1.7s0.7,1.7,1.7,1.7h25c1,0,1.7-0.7,1.7-1.7S99.3,93.9,98.3,93.9z"/>
	<path class="st0" d="M106.7,70.5h-25c-1,0-1.7,0.7-1.7,1.7s0.7,1.7,1.7,1.7h25c1,0,1.7-0.7,1.7-1.7S107.7,70.5,106.7,70.5z"/>
	<path class="st0" d="M106.7,82.2H90c-1,0-1.7,0.7-1.7,1.7c0,1,0.7,1.7,1.7,1.7h16.7c1,0,1.7-0.7,1.7-1.7
		C108.3,82.9,107.7,82.2,106.7,82.2z"/>
	<path class="st0" d="M71.7,83.9c0,1,0.7,1.7,1.7,1.7h3.3c1,0,1.7-0.7,1.7-1.7c0-1-0.7-1.7-1.7-1.7h-3.3
		C72.3,82.2,71.7,82.9,71.7,83.9z"/>
	<path class="st0" d="M100,60.5c0-1-0.7-1.7-1.7-1.7h-25c-1,0-1.7,0.7-1.7,1.7s0.7,1.7,1.7,1.7h25C99.3,62.2,100,61.5,100,60.5z"/>
	<path class="st0" d="M53.3,62.2v-1.7c0-1-0.7-1.7-1.7-1.7c-1,0-1.7,0.7-1.7,1.7v1.7c-1.8,0.3-3.3,1.3-4.7,2.8
		c-1,1.2-1.5,2.7-1.3,4.3s1,3.2,2.3,4.2l3.7,2.8v9.2c-2-0.7-3.3-2.5-3.3-4.7c0-1-0.7-1.7-1.7-1.7c-1,0-1.7,0.7-1.7,1.7
		c0,4.2,2.8,7.3,6.7,8.2v1.5c0,1,0.7,1.7,1.7,1.7s1.7-0.7,1.7-1.7V89c1.8-0.3,3.5-1.3,4.7-2.8c1-1.2,1.5-2.7,1.3-4.3
		c-0.2-1.7-1-3.2-2.3-4.2l-3.7-2.8v-9.2c2,0.7,3.3,2.5,3.3,4.7c0,1,0.7,1.7,1.7,1.7c1,0,1.7-0.7,1.7-1.7C60,66.2,57.2,63,53.3,62.2z
		 M55,80.4c0.5,0.5,1,1.2,1,1.8c0.2,0.7,0,1.3-0.5,1.8c-0.7,0.7-1.3,1.2-2.2,1.5V79L55,80.4z M48.3,70.9c-0.5-0.5-1-1.2-1-1.8
		c-0.2-0.7,0-1.3,0.5-1.8c0.7-0.7,1.3-1.2,2.2-1.5v6.5L48.3,70.9z"/>
	<path class="st0" d="M51.7,47.2c0.8,0,1.7-0.8,1.7-1.7c0-1-0.8-1.7-1.7-1.7c-1,0-1.7,0.7-1.7,1.7C50,46.4,50.7,47.2,51.7,47.2z"/>
	<path class="st0" d="M45,47.2c0.8,0,1.7-0.8,1.7-1.7c0-1-0.8-1.7-1.7-1.7c-1,0-1.7,0.7-1.7,1.7C43.3,46.4,44,47.2,45,47.2z"/>
	<path class="st0" d="M78.3,47.2c0.8,0,1.7-0.8,1.7-1.7c0-1-0.8-1.7-1.7-1.7c-1,0-1.7,0.7-1.7,1.7C76.7,46.4,77.3,47.2,78.3,47.2z"
		/>
	<path class="st0" d="M85,47.2c0.8,0,1.7-0.8,1.7-1.7c0-1-0.8-1.7-1.7-1.7s-1.7,0.7-1.7,1.7C83.3,46.4,84.2,47.2,85,47.2z"/>
	<path class="st0" d="M105,47.2c0.8,0,1.7-0.8,1.7-1.7c0-1-0.8-1.7-1.7-1.7s-1.7,0.7-1.7,1.7C103.3,46.4,104.2,47.2,105,47.2z"/>
	<path class="st0" d="M91.7,47.2c0.8,0,1.7-0.8,1.7-1.7c0-1-0.8-1.7-1.7-1.7c-0.8,0-1.7,0.7-1.7,1.7C90,46.4,90.8,47.2,91.7,47.2z"
		/>
	<path class="st0" d="M98.3,47.2c0.8,0,1.7-0.8,1.7-1.7c0-1-0.8-1.7-1.7-1.7c-0.8,0-1.7,0.7-1.7,1.7C96.7,46.4,97.5,47.2,98.3,47.2z
		"/>
	<path class="st0" d="M73.3,45.5c0-1-0.8-1.7-1.7-1.7c-1,0-1.7,0.7-1.7,1.7c0,0.8,0.7,1.7,1.7,1.7C72.5,47.2,73.3,46.4,73.3,45.5z"
		/>
	<path class="st0" d="M38.3,43.9c-1,0-1.7,0.7-1.7,1.7c0,0.8,0.7,1.7,1.7,1.7c0.8,0,1.7-0.8,1.7-1.7C40,44.5,39.2,43.9,38.3,43.9z"
		/>
	<path class="st0" d="M111.7,43.9c-0.8,0-1.7,0.7-1.7,1.7c0,0.8,0.8,1.7,1.7,1.7c0.8,0,1.7-0.8,1.7-1.7
		C113.3,44.5,112.5,43.9,111.7,43.9z"/>
	<path class="st0" d="M58.3,43.9c-1,0-1.7,0.7-1.7,1.7c0,0.8,0.7,1.7,1.7,1.7c0.8,0,1.7-0.8,1.7-1.7C60,44.5,59.2,43.9,58.3,43.9z"
		/>
	<path class="st0" d="M65,43.9c-1,0-1.7,0.7-1.7,1.7c0,0.8,0.7,1.7,1.7,1.7c0.8,0,1.7-0.8,1.7-1.7C66.7,44.5,65.8,43.9,65,43.9z"/>
	<path class="st0" d="M106.7,93.9c-1,0-1.7,0.7-1.7,1.7s0.7,1.7,1.7,1.7c1,0,1.7-0.7,1.7-1.7S107.7,93.9,106.7,93.9z"/>
	<path class="st0" d="M85,83.9c0-1-0.7-1.7-1.7-1.7c-1,0-1.7,0.7-1.7,1.7c0,1,0.7,1.7,1.7,1.7C84.3,85.5,85,84.9,85,83.9z"/>
	<path class="st0" d="M76.7,72.2c0-1-0.7-1.7-1.7-1.7s-1.7,0.7-1.7,1.7s0.7,1.7,1.7,1.7S76.7,73.2,76.7,72.2z"/>
	<path class="st0" d="M106.7,58.9c-1,0-1.7,0.7-1.7,1.7s0.7,1.7,1.7,1.7c1,0,1.7-0.7,1.7-1.7S107.7,58.9,106.7,58.9z"/>
</g>
</svg>
