<?xml version="1.0" encoding="utf-8"?>
<!-- Generator: Adobe Illustrator 20.1.0, SVG Export Plug-In . SVG Version: 6.00 Build 0)  -->
<svg version="1.1" id="Layer_1" xmlns="http://www.w3.org/2000/svg" xmlns:xlink="http://www.w3.org/1999/xlink" x="0px" y="0px"
	 viewBox="0 0 150 150" style="enable-background:new 0 0 150 150;" xml:space="preserve">
<style type="text/css">
	.st0{fill:#EC0606;}
</style>
<path class="st0" d="M99.8,76.3h-0.9v-6.1c0-1-0.7-1.7-1.7-1.7H95l5.7-14.7l0.3,0c2.5-0.3,4.5-1.7,5.8-3.9
	c2.9-5.1,1.5-14.2-2.8-18.3c-2.5-2.2-5.4-3.7-7.9-4.8c-0.4-0.2-0.9-0.2-1.3,0c-0.4,0.2-0.8,0.5-0.9,0.9c-0.4,0.8,0,1.8,0.9,2.2
	c1,0.4,1.2,1,1.2,1.4c0.3,1.1,0.1,3.5-2.9,8.3c-1.2,2-2.3,4.2-2.4,6.7c0,1.7,0.6,3.1,1.7,4.3l0.2,0.3L82.4,69.7v-41
	c0-1-0.7-1.7-1.7-1.7h-17c-1,0-1.7,0.7-1.7,1.7v39L50.1,50c0,0-0.2-0.2-0.3-0.4l0,0c-0.1,0-0.2-0.1-0.3-0.1l-11.7-6.6
	c-0.6-0.3-1.3-0.3-1.7,0c-0.6,0.4-0.8,1-0.7,1.8l2.5,13.3c0,0,0,0.1,0.1,0.1l0,0c0.1,0.1,0.2,0.3,0.2,0.4l7,10h-1.7
	c-1,0-1.7,0.7-1.7,1.7v47.1c0,4.6,3.7,8.3,8.3,8.3h40.7c4.6,0,8.3-3.7,8.3-8.3v-10.8h0.9c8.3,0,15.1-6.8,15.1-15.1
	S108.2,76.3,99.8,76.3z M94.2,46.3c0-1.6,0.7-3,1.9-4.9c0.9-1.4,3-4.8,3.4-8.2l0.1-0.9l2.2,1.7c3.2,2.9,4.4,10.2,2.2,14.2
	c-0.7,1.1-1.7,2.3-3.9,2.3c-0.6,0-1.2-0.1-2-0.3C94.2,49.1,94,47.1,94.2,46.3z M95.3,52.9l0.6,0.2c0.3,0.1,0.6,0.2,0.9,0.4l0.3,0.2
	l-5.8,14.8h-4.7L95.3,52.9z M65.4,30.4h13.5v4.3h-8.2c-1,0-1.7,0.7-1.7,1.7c0,1,0.7,1.7,1.7,1.7h8.2v4.7h-3.3c-1,0-1.7,0.7-1.7,1.7
	c0,1,0.7,1.7,1.7,1.7h3.3v4.7h-8.2c-1,0-1.7,0.7-1.7,1.7c0,1,0.7,1.7,1.7,1.7h8.2v5.2h-3.3c-1,0-1.7,0.7-1.7,1.7
	c0,1,0.7,1.7,1.7,1.7h3.3v5.6H65.4V30.4z M39.3,47.6l6.2,3.5l-5,3.5L39.3,47.6z M41.6,58l6.6-4.6l10.2,15.1h-9.7V68
	c0,0-0.1-0.1-0.2-0.1l-0.1-0.1L41.6,58z M95.4,117.3c0,2.7-2.2,4.9-4.9,4.9H49.8c-2.7,0-4.9-2.2-4.9-4.9V71.9h50.5V117.3z
	 M99.8,103.2h-0.9V79.7h0.9c6.5,0,11.7,5.2,11.7,11.7C111.5,97.9,106.2,103.2,99.8,103.2z"/>
</svg>
