<?xml version="1.0" encoding="utf-8"?>
<!-- Generator: Adobe Illustrator 20.1.0, SVG Export Plug-In . SVG Version: 6.00 Build 0)  -->
<svg version="1.1" id="Layer_1" xmlns="http://www.w3.org/2000/svg" xmlns:xlink="http://www.w3.org/1999/xlink" x="0px" y="0px"
	 viewBox="0 0 150 150" style="enable-background:new 0 0 150 150;" xml:space="preserve">
<style type="text/css">
	.st0{fill:#EC0606;}
</style>
<title>18 - Full Shopping Cart (business, finance, marketing, outline)</title>
<desc>Created with Sketch.</desc>
<path class="st0" d="M116.9,57v-22H100v-5.1H69.5v13.6H45.7V57h-5.1V43.4c0-1-0.7-1.7-1.7-1.7h-3.6c-0.8-2.9-3.4-5.1-6.6-5.1
	c-3.7,0-6.8,3.1-6.8,6.8s3.1,6.8,6.8,6.8c3.2,0,5.8-2.2,6.6-5.1h1.9V57v1.7v40.7v1.7v10.2c0,1,0.7,1.7,1.7,1.7h11.9
	c-2,1.5-3.4,4.1-3.4,6.8c0,4.7,3.7,8.5,8.5,8.5s8.5-3.7,8.5-8.5c0-2.7-1.4-5.3-3.4-6.8h30.5c-2,1.5-3.4,4.1-3.4,6.8
	c0,4.7,3.7,8.5,8.5,8.5s8.5-3.7,8.5-8.5c0-2.7-1.4-5.3-3.4-6.8h10.2c1,0,1.7-0.7,1.7-1.7c0-1-0.7-1.7-1.7-1.7H40.6V101H122v-1.7
	V58.7V57H116.9z M28.8,46.8c-1.9,0-3.4-1.5-3.4-3.4s1.5-3.4,3.4-3.4c1.2,0,2.4,0.7,2.9,1.7h-1.2c-1,0-1.7,0.7-1.7,1.7
	s0.7,1.7,1.7,1.7h1.2C31.2,46.1,30,46.8,28.8,46.8z M55.9,124.8c-2.9,0-5.1-2.2-5.1-5.1c0-2.9,2.2-5.1,5.1-5.1
	c2.9,0,5.1,2.2,5.1,5.1C61,122.6,58.8,124.8,55.9,124.8z M96.6,124.8c-2.9,0-5.1-2.2-5.1-5.1c0-2.9,2.2-5.1,5.1-5.1s5.1,2.2,5.1,5.1
	C101.7,122.6,99.5,124.8,96.6,124.8z M40.6,73.9h10.2v10.2H40.6V73.9z M54.2,73.9h10.2v10.2H54.2V73.9z M64.4,60.4v10.2H54.2V60.4
	H64.4z M69.5,60.4h3.4h5.1v10.2H67.8V60.4H69.5z M91.5,60.4v10.2H81.3V60.4H91.5z M96.6,60.4h3.4h5.1v10.2H94.9V60.4H96.6z
	 M105.1,84.1H94.9V73.9h10.2V84.1z M108.4,73.9h10.2v10.2h-10.2V73.9z M81.3,73.9h10.2v10.2H81.3V73.9z M77.9,84.1H67.8V73.9h10.2
	V84.1z M64.4,87.5v10.2H54.2V87.5H64.4z M67.8,87.5h10.2v10.2H67.8V87.5z M81.3,87.5h10.2v10.2H81.3V87.5z M94.9,87.5h10.2v10.2
	H94.9V87.5z M108.4,87.5h10.2v10.2h-10.2V87.5z M118.6,60.4v10.2h-10.2V60.4h8.5H118.6z M113.5,38.3V57H100V38.3H113.5z M72.8,33.2
	h23.7v1.7v22H72.8V43.4V33.2z M49.1,46.8h20.3V57H49.1V46.8z M50.8,60.4v10.2H40.6V60.4h5.1H50.8z M40.6,87.5h10.2v10.2H40.6V87.5z"
	/>
</svg>
