<?xml version="1.0" encoding="utf-8"?>
<!-- Generator: Adobe Illustrator 20.1.0, SVG Export Plug-In . SVG Version: 6.00 Build 0)  -->
<svg version="1.1" id="Layer_1" xmlns="http://www.w3.org/2000/svg" xmlns:xlink="http://www.w3.org/1999/xlink" x="0px" y="0px"
	 viewBox="0 0 150 150" style="enable-background:new 0 0 150 150;" xml:space="preserve">
<style type="text/css">
	.st0{fill:#EC0606;}
</style>
<path class="st0" d="M119.3,34.8l-0.4-10.3L117,25c-0.8,0.2-19.3,5.2-22.7,15.8c-1.3,4.2-0.2,8.7,3.6,13.3l-5,5
	c-6.6-6-15.4-9.7-24.9-9.7c-20.5,0-37.1,16.6-37.1,37.1c0,9.6,3.7,18.5,9.7,25.1l-9.3,9.3c-0.6,0.6-0.6,1.7,0,2.2
	c0.3,0.3,0.7,0.4,1.2,0.4c0.4,0,0.8-0.1,1.2-0.4l9.2-9.3c6.6,6.1,15.4,9.7,25.1,9.7c9.6,0,18.5-3.7,25.1-9.7l9.3,9.3
	c0.3,0.3,0.7,0.4,1.2,0.4s0.8-0.1,1.2-0.4c0.6-0.6,0.6-1.7,0-2.2l-9.3-9.3c6.1-6.6,9.7-15.4,9.7-25.1s-3.7-18.5-9.8-25.1l4.9-4.9
	c2.5,2.2,5.1,3.3,7.9,3.3c0.5,0,1-0.1,1.5-0.1c11.3-1.6,19.9-21.4,20.3-22.3l1-2.2L119.3,34.8z M115.9,28.7l0.3,7.1l-8.1,8.1v-12
	c0.1-0.1,0.3-0.1,0.4-0.2C111.3,30.3,114.1,29.2,115.9,28.7z M97.3,41.7c1.1-3.3,4.2-6,7.5-8.1v13.4l-4.7,4.7
	C97.3,48.2,96.3,44.8,97.3,41.7z M101.8,86.4c0,9.4-3.8,17.8-9.9,23.9l0,0l0,0c-6.2,6.2-14.6,9.9-23.9,9.9
	c-18.7,0-33.9-15.2-33.9-33.9s15.2-33.9,33.9-33.9c8.7,0,16.7,3.3,22.7,8.8l-6.9,6.9c-4.2-3.7-9.7-5.9-15.8-5.9
	c-13.3-0.1-24.1,10.8-24.1,24.1s10.8,24.2,24.2,24.2s24.2-10.8,24.2-24.2c0-6.1-2.3-11.7-6-16l6.9-6.9
	C98.4,69.6,101.8,77.7,101.8,86.4z M76.4,86.4c0,4.7-3.8,8.5-8.5,8.5s-8.5-3.8-8.5-8.5s3.8-8.5,8.5-8.5c1.7,0,3.3,0.5,4.6,1.4
	L68.9,83c-0.3-0.1-0.7-0.2-1.1-0.2c-2,0-3.6,1.6-3.6,3.6s1.6,3.6,3.6,3.6s3.6-1.6,3.6-3.6c0-0.4-0.1-0.8-0.3-1.2l3.5-3.5
	C75.8,83,76.4,84.6,76.4,86.4z M74.8,77.1c-1.9-1.5-4.4-2.3-6.9-2.3c-6.4,0-11.7,5.3-11.7,11.7s5.3,11.7,11.7,11.7
	c6.4,0,11.7-5.3,11.7-11.7c0-2.7-0.9-5.1-2.4-7.1l6.5-6.6c3.2,3.7,5.1,8.5,5.1,13.7c0,11.5-9.4,21-21,21s-21-9.4-21-21s9.4-21,21-21
	c5.1,0,9.9,1.9,13.5,5L74.8,77.1z M109,56.4c-2.3,0.3-4.5-0.4-6.7-2.3L118.4,38l7.4,0.3C122.7,44.4,115.9,55.5,109,56.4z"/>
</svg>
