<?xml version="1.0" encoding="utf-8"?>
<!-- Generator: Adobe Illustrator 21.0.0, SVG Export Plug-In . SVG Version: 6.00 Build 0)  -->
<svg version="1.1" id="Layer_1" xmlns="http://www.w3.org/2000/svg" xmlns:xlink="http://www.w3.org/1999/xlink" x="0px" y="0px"
	 viewBox="0 0 150 150" style="enable-background:new 0 0 150 150;" xml:space="preserve">
<style type="text/css">
	.st0{fill:#EC0606;}
</style>
<path class="st0" d="M133.4,58.4h-25V37.8c0-4.4-3.6-7.8-8-7.8H20c-4.4,0-8,3.3-8,7.8v52.6c0,0.2-0.1,0.3-0.1,0.5s0.1,0.4,0.1,0.5
	v5.9c0,4.4,3.6,8.2,8,8.2h30.3v9.5c0,1.6-6.7,4.8-11.1,4.8c-0.9,0-1.5,0.6-1.5,1.5c0,0.9,0.8,1.5,1.7,1.5h41.8
	c0.9,0,1.6-0.6,1.6-1.5c0-0.9-0.9-1.5-1.8-1.5c-4.4,0-11.4-3.2-11.4-4.8v-9.5h21v7.7v5.4c0,2.5,2,4.2,4.5,4.2h38.4
	c2.5,0,4.6-1.7,4.6-4.2v-5.4V66.4v-3.2C138,60.6,135.9,58.4,133.4,58.4z M133.4,61.5c0.9,0,1.5,0.7,1.5,1.7v2h-26.5h-3.1H92.9v-2
	c0-1,1.1-1.7,2-1.7h10.4h3.1H133.4z M15.1,37.8c0-2.7,2.3-4.7,4.9-4.7h80.3c2.7,0,4.9,2,4.9,4.7v20.6H95c-2.5,0-4.5,2.2-4.5,4.8v3.2
	v22.9H15.2h-0.1V37.8z M13.6,89.3c-0.2,0-0.4,0.1-0.6,0.1C13.2,89.4,13.4,89.3,13.6,89.3z M70.3,119.6H50.1c2.1-1.2,3.3-2.7,3.3-4.7
	v-9.5h0.4h12.6v9.5C66.4,116.9,68.2,118.3,70.3,119.6z M68.2,102.3H52.2H20c-2.7,0-4.9-2.4-4.9-5.1v-4.8h0.1h75.3v9.9H68.2z
	 M92.9,102.3v-9.9v-3.1V67.7v-0.1h12.4h3.1H135v0.1v43.8h-42v-6.2V102.3z M114.2,119.2c-1,0-1.9-0.8-1.9-1.9c0-1.1,0.8-1.9,1.9-1.9
	c1.1,0,1.9,0.8,1.9,1.9C116.1,118.4,115.2,119.2,114.2,119.2z M95,120.2c-0.9,0-2-0.7-2-1.7v-3.8h17.7c-0.7,0.6-1.1,1.7-1.1,2.8
	c0,1.1,0.4,2.2,1.1,2.8H95z M135,118.5c0,1-0.6,1.7-1.5,1.7h-15.8c0.7-0.6,1.1-1.7,1.1-2.8c0-1.1-0.4-2.2-1.1-2.8H135V118.5z"/>
</svg>
