<?xml version="1.0" encoding="utf-8"?>
<!-- Generator: Adobe Illustrator 20.1.0, SVG Export Plug-In . SVG Version: 6.00 Build 0)  -->
<svg version="1.1" id="Layer_1" xmlns="http://www.w3.org/2000/svg" xmlns:xlink="http://www.w3.org/1999/xlink" x="0px" y="0px"
	 viewBox="0 0 150 150" style="enable-background:new 0 0 150 150;" xml:space="preserve">
<style type="text/css">
	.st0{fill:#EC0606;}
</style>
<title>36 - Plane Tickets (travel, vacation, voyage, outline)</title>
<desc>Created with Sketch.</desc>
<g>
	<path class="st0" d="M58.3,81.8v-10c0-1-0.7-1.7-1.7-1.7H33.3c-1,0-1.7,0.7-1.7,1.7v10c0,1,0.7,1.7,1.7,1.7h23.3
		C57.7,83.5,58.3,82.8,58.3,81.8z M55,80.2H35v-6.7h20V80.2z"/>
	<path class="st0" d="M123.3,43.5H26.7c-1,0-1.7,0.7-1.7,1.7v61.7c0,1,0.7,1.7,1.7,1.7h96.7c1,0,1.7-0.7,1.7-1.7V45.2
		C125,44.2,124.3,43.5,123.3,43.5z M121.7,105.2H78.3H75H28.3V66.8H75v1.7h3.3v-1.7h43.3V105.2z M121.7,63.5H28.3V46.8h93.3V63.5z"
		/>
	<path class="st0" d="M65,96.8H38.3c-1,0-1.7,0.7-1.7,1.7s0.7,1.7,1.7,1.7H65c1,0,1.7-0.7,1.7-1.7S66,96.8,65,96.8z"/>
	<path class="st0" d="M108.3,98.5H91.7c-1,0-1.7,0.7-1.7,1.7c0,1,0.7,1.7,1.7,1.7h16.7c1,0,1.7-0.7,1.7-1.7
		C110,99.2,109.3,98.5,108.3,98.5z"/>
	<path class="st0" d="M68.3,88.5h-25c-1,0-1.7,0.7-1.7,1.7s0.7,1.7,1.7,1.7h25c1,0,1.7-0.7,1.7-1.7S69.3,88.5,68.3,88.5z"/>
	<rect x="75" y="85.2" class="st0" width="3.3" height="3.3"/>
	<rect x="75" y="91.8" class="st0" width="3.3" height="3.3"/>
	<rect x="75" y="78.5" class="st0" width="3.3" height="3.3"/>
	<rect x="75" y="98.5" class="st0" width="3.3" height="3.3"/>
	<rect x="75" y="71.8" class="st0" width="3.3" height="3.3"/>
	<path class="st0" d="M84,89.8l6.7,5C90.8,95,90.8,95,91,95c0.2,0.2,0.5,0.2,0.7,0.2l0,0c0.2,0,0.5,0,0.7-0.2c0.2,0,0.2-0.2,0.3-0.2
		l13.8-12v9c0,1,0.7,1.7,1.7,1.7c1,0,1.7-0.7,1.7-1.7v-12l7.8-6.7c0.7-0.7,0.8-1.7,0.2-2.3c-0.7-0.7-1.7-0.8-2.3-0.2l-7.2,6.2l0,0
		h-15c-1,0-1.7,0.7-1.7,1.7s0.7,1.7,1.7,1.7h11.2L91.7,91.3L86,87.2c-0.7-0.5-1.8-0.3-2.3,0.3C83.2,88.2,83.3,89.3,84,89.8z"/>
	<path class="st0" d="M58.3,53.5h25c1,0,1.7-0.7,1.7-1.7s-0.7-1.7-1.7-1.7h-25c-1,0-1.7,0.7-1.7,1.7S57.3,53.5,58.3,53.5z"/>
	<path class="st0" d="M33.3,60.2h8.3c1,0,1.7-0.7,1.7-1.7s-0.7-1.7-1.7-1.7h-8.3c-1,0-1.7,0.7-1.7,1.7S32.3,60.2,33.3,60.2z"/>
	<path class="st0" d="M33.3,53.5h18.3c1,0,1.7-0.7,1.7-1.7s-0.7-1.7-1.7-1.7H33.3c-1,0-1.7,0.7-1.7,1.7S32.3,53.5,33.3,53.5z"/>
	<path class="st0" d="M61.7,56.8H48.3c-1,0-1.7,0.7-1.7,1.7s0.7,1.7,1.7,1.7h13.3c1,0,1.7-0.7,1.7-1.7S62.7,56.8,61.7,56.8z"/>
	<path class="st0" d="M76.7,56.8h-8.3c-1,0-1.7,0.7-1.7,1.7s0.7,1.7,1.7,1.7h8.3c1,0,1.7-0.7,1.7-1.7S77.7,56.8,76.7,56.8z"/>
</g>
</svg>
