<?xml version="1.0" encoding="utf-8"?>
<!-- Generator: Adobe Illustrator 20.1.0, SVG Export Plug-In . SVG Version: 6.00 Build 0)  -->
<svg version="1.1" id="Layer_1" xmlns="http://www.w3.org/2000/svg" xmlns:xlink="http://www.w3.org/1999/xlink" x="0px" y="0px"
	 viewBox="0 0 150 150" style="enable-background:new 0 0 150 150;" xml:space="preserve">
<style type="text/css">
	.st0{fill:#EC0606;}
</style>
<title>64 - Money Clip (business, finance, marketing, outline)</title>
<desc>Created with Sketch.</desc>
<path class="st0" d="M117.7,33h-3.5h-14H35.3v8.8v17.5h-2.1c-5.6,0-10.2,4.6-10.2,10.2v24.9c0,4.9,3.9,8.8,8.8,8.8h3.5v7v8.8h64.9
	h14h3.5h5.3V33H117.7z M114.2,36.5v10.4c-5.4-0.7-9.6-5.1-10.4-10.4H114.2z M38.8,45.5c9.5,0.9,18.1,6,23.2,13.9H38.8V45.5z
	 M26.5,69.5c0-3.7,3-6.7,6.7-6.7h2.1h32.6h6v22.8H69H38.8h-3.5h-3.5c-0.5,0-1.1,0-1.6,0.2c-0.2,0-0.4,0-0.5,0.2
	c-0.4,0.2-0.7,0.2-1.1,0.4c-0.2,0-0.4,0.2-0.5,0.2c-0.4,0.2-0.7,0.4-0.9,0.5c-0.2,0.2-0.4,0.2-0.5,0.4c0,0-0.2,0-0.2,0V69.5z
	 M86.2,71.6v5.3c0,4.9-3.9,8.8-8.8,8.8V62.9C82.3,62.9,86.2,66.7,86.2,71.6z M31.8,99.7c-3,0-5.3-2.3-5.3-5.3s2.3-5.3,5.3-5.3h3.5
	v10.5H31.8z M38.8,89.2h25.1c-4.7,9.8-14.2,16.5-25.1,17.4v-3.3C38.8,103.2,38.8,89.2,38.8,89.2z M38.8,115.5v-5.4
	c12.8-1.1,23.9-8.9,28.9-20.9h9.6c6.8,0,12.3-5.4,12.3-12.3v-5.3c0-6.8-5.4-12.3-12.3-12.3H66c-5.6-10-15.8-16.5-27.2-17.4v-5.4
	h61.6c0.9,7.4,6.7,13.2,13.9,13.9v51.1c-7.4,0.9-13.2,6.7-13.9,13.9H38.8V115.5z M114.2,115.5h-10.4c0.7-5.4,5.1-9.6,10.4-10.4
	V115.5z M119.5,115.5h-1.8v-14V50.6v-14h1.8V115.5z"/>
</svg>
